<svg width="86" height="46" viewBox="0 0 86 46" fill="none" xmlns="http://www.w3.org/2000/svg">
<path d="M33.1906 11.1689V11.4605C33.1906 16.0705 33.1896 20.6805 33.1915 25.29C33.1915 26.1041 33.2123 26.9182 33.2036 27.7323C33.1968 28.3602 33.1857 28.9905 33.1284 29.6151C33.0305 30.678 32.8757 31.7324 32.5106 32.7479C32.093 33.9082 31.5853 35.0268 30.8933 36.0532C30.3682 36.8321 29.8517 37.6263 29.2355 38.3325C28.5445 39.1248 27.7585 39.8386 26.9903 40.562C26.2251 41.2825 25.3571 41.8767 24.4664 42.4376C23.3945 43.113 22.284 43.7186 21.1011 44.1865C20.4877 44.4292 19.8705 44.6638 19.249 44.8861C18.6558 45.0984 18.042 45.2594 17.4604 45.4978C16.8196 45.7605 16.2467 45.5363 15.6613 45.3506C14.2485 44.9027 12.8587 44.3969 11.524 43.7495C10.128 43.0722 8.79709 42.2951 7.55589 41.3685C6.67007 40.7073 5.83248 39.9921 5.07059 39.197C4.10135 38.1853 3.24784 37.0834 2.53176 35.8817C1.87934 34.7874 1.35276 33.6375 0.977124 32.423C0.754826 31.7044 0.561943 30.9782 0.506971 30.2244C0.472252 29.7499 0.4303 29.2759 0.413423 28.801C0.39751 28.3426 0.410047 27.8833 0.410047 27.4245C0.406672 22.0798 0.405225 16.7345 0.396545 11.3893C0.396545 11.2112 0.457786 11.1205 0.615468 11.0687C1.06874 10.92 1.51768 10.7566 1.97578 10.6236C2.81916 10.3786 3.66688 10.1477 4.5146 9.91643C4.93895 9.80054 5.36377 9.68607 5.79342 9.59203C6.16617 9.51033 6.5447 9.45619 6.9213 9.39397C7.32105 9.32747 7.72177 9.26573 8.122 9.20208C8.515 9.13939 8.90704 9.06814 9.30148 9.01542C10.0552 8.91473 10.8103 8.82116 11.5654 8.7314C11.8008 8.70337 12.039 8.69292 12.2762 8.682C13.516 8.62548 14.7557 8.55423 15.996 8.52146C16.8538 8.49914 17.7126 8.52764 18.5715 8.54046C18.8569 8.54473 19.1424 8.56611 19.4269 8.58701C20.2626 8.6478 21.0982 8.70955 21.9339 8.77652C22.4605 8.81879 22.9875 8.85869 23.5117 8.92138C24.0392 8.98455 24.5634 9.07432 25.089 9.15459C25.7067 9.24863 26.3268 9.3289 26.9402 9.44526C27.6032 9.57113 28.2658 9.70697 28.9167 9.88176C30.089 10.1962 31.2535 10.5396 32.4185 10.8797C32.6741 10.9542 32.9181 11.0658 33.191 11.1689H33.1906ZM31.6321 12.2675C31.4483 12.2001 31.2796 12.1212 31.1016 12.0756C30.1199 11.8234 29.1381 11.5703 28.1515 11.3351C26.8167 11.0169 25.4675 10.7771 24.1019 10.6251C23.314 10.5372 22.5289 10.4237 21.7396 10.3458C21.0625 10.2793 20.3826 10.2347 19.7027 10.2028C18.9051 10.1653 18.1066 10.1335 17.3085 10.134C16.4618 10.1344 15.615 10.1672 14.7688 10.2019C13.8646 10.2389 12.96 10.2831 12.0573 10.3458C11.4377 10.3885 10.8204 10.4636 10.2027 10.5329C9.54789 10.6065 8.89112 10.6688 8.24159 10.7747C7.40544 10.911 6.57411 11.0791 5.74279 11.2459C5.1651 11.3617 4.5879 11.4833 4.01696 11.6291C3.43446 11.7778 2.86208 11.9659 2.28101 12.1217C2.0727 12.1773 1.99941 12.2665 2.00085 12.4903C2.0105 14.0795 2.00085 15.6692 1.99941 17.2584C1.99603 20.9911 1.99699 24.7239 1.9888 28.4561C1.98687 29.293 2.01146 30.1299 2.20097 30.944C2.57902 32.5693 3.24784 34.084 4.15054 35.4927C5.03105 36.8668 6.09721 38.0879 7.33793 39.1637C8.10368 39.8277 8.90993 40.4323 9.76344 40.9823C10.7505 41.6188 11.7863 42.1612 12.8573 42.6438C14.0252 43.17 15.2326 43.5918 16.4599 43.9589C16.6113 44.0041 16.7878 44.0326 16.9387 44.0017C17.1928 43.9494 17.4378 43.8488 17.6823 43.758C18.7648 43.3567 19.8657 42.9957 20.9217 42.536C22.1846 41.9859 23.4037 41.3362 24.5113 40.515C25.2577 39.9617 25.9931 39.3879 26.6803 38.7662C27.2334 38.2656 27.7199 37.6899 28.2127 37.1285C28.9076 36.3372 29.4795 35.4585 29.9766 34.5366C30.456 33.6475 30.8301 32.7156 31.1363 31.7519C31.4753 30.6847 31.62 29.5908 31.6239 28.4875C31.6427 23.1575 31.6321 17.8269 31.6321 12.4964C31.6321 12.4176 31.6321 12.3392 31.6321 12.267V12.2675Z" fill="white"/>
<path d="M25.8142 1.95938C25.5881 3.81601 25.3624 5.67264 25.1314 7.57012C19.5238 6.56462 13.935 6.48863 8.31295 7.57012C8.09017 5.66646 7.8669 3.76281 7.63593 1.78696C7.89101 1.98265 8.1027 2.13986 8.30861 2.30467C9.19346 3.01284 10.0764 3.72339 10.9612 4.43203C11.0808 4.52798 11.1585 4.56312 11.2149 4.35224C11.4078 3.62602 11.6272 2.90693 11.834 2.18451C11.9059 1.9342 11.9695 1.682 12.0414 1.43169C12.0481 1.40842 12.0891 1.39417 12.1407 1.35665C12.9643 2.35312 13.786 3.34769 14.6332 4.37266C15.3537 3.20568 16.0524 2.07384 16.7704 0.911133C17.3982 2.08002 18.0092 3.21708 18.6457 4.40164C19.5846 3.28357 20.5027 2.19068 21.4604 1.05077C21.7236 2.23438 21.9778 3.37714 22.2401 4.556C23.4461 3.65879 24.6 2.80054 25.7539 1.94275C25.7742 1.94845 25.7949 1.95415 25.8152 1.95985L25.8142 1.95938Z" fill="white"/>
<path d="M76.3149 29.7449C75.7478 30.9598 75.1808 32.1748 74.5915 33.4372C73.9492 32.1928 73.3218 30.9769 72.694 29.761L72.6549 29.7662V29.988C72.6549 31.0315 72.6506 32.0755 72.6593 33.119C72.6607 33.309 72.6019 33.3831 72.4119 33.3574C72.3569 33.3498 72.2991 33.3508 72.2436 33.3574C72.071 33.3783 72.0126 33.3014 72.0271 33.1385C72.0483 32.8977 72.0734 32.6564 72.0744 32.4151C72.0797 31.4186 72.0797 30.4226 72.0744 29.4262C72.0729 29.2096 72.0623 28.9883 72.0175 28.7774C71.9529 28.4734 71.7735 28.2445 71.4562 28.1072C71.5111 28.0986 71.5661 28.0825 71.6216 28.082C72.0874 28.0801 72.5532 28.0877 73.019 28.0768C73.1642 28.0735 73.2254 28.1305 73.2857 28.2492C73.7795 29.2196 74.2809 30.1861 74.7805 31.1531C74.809 31.2078 74.8447 31.2586 74.9054 31.3569C75.0086 31.1565 75.1012 30.9931 75.1783 30.8235C75.568 29.9667 75.9557 29.1094 76.3376 28.2492C76.3935 28.1233 76.4629 28.0725 76.6052 28.0773C76.9336 28.0877 77.2624 28.0806 77.6053 28.0806V33.3337H76.3733V29.7482C76.3747 29.7192 76.3761 29.6902 76.3776 29.6613C76.3569 29.6888 76.3361 29.7164 76.3154 29.7444L76.3149 29.7449Z" fill="white"/>
<path d="M52.4104 21.73V25.2728H51.8265C51.8265 25.1972 51.8265 25.1141 51.8265 25.031C51.8265 23.8232 51.8313 22.6153 51.8226 21.4075C51.8207 21.1544 51.7811 20.8988 51.7339 20.649C51.6871 20.4034 51.5535 20.2144 51.282 20.1541C51.2526 20.1474 51.2338 20.0966 51.2097 20.0667C51.2218 20.0572 51.2223 20.0467 51.2121 20.0353C51.7339 20.0334 52.2556 20.0358 52.7769 20.0273C52.9018 20.0249 52.9461 20.0771 52.9982 20.1793C53.5185 21.1947 54.0465 22.2064 54.5726 23.2185C54.5934 23.258 54.6165 23.2964 54.6493 23.3544C55.0351 22.4966 55.4112 21.6592 55.7878 20.8224C55.8568 20.6694 55.9344 20.5193 55.9947 20.3631C56.0897 20.1156 56.2276 19.976 56.5314 20.0154C56.798 20.0501 57.0729 20.0225 57.3564 20.0225V25.2823H56.1094V21.6393C56.0935 21.6374 56.0781 21.636 56.0622 21.6341C55.4912 22.8685 54.9203 24.1029 54.3253 25.3896C54.2105 25.1673 54.1213 24.9949 54.0326 24.823C53.5161 23.8232 52.9997 22.8234 52.4837 21.8236C52.4702 21.797 52.4654 21.7661 52.4562 21.7371C52.4398 21.7082 52.4234 21.6787 52.407 21.6497C52.408 21.6768 52.4085 21.7039 52.4095 21.7305L52.4104 21.73Z" fill="white"/>
<path d="M50.8177 39.8855C51.4301 40.6849 52.0449 41.4871 52.6906 42.3297C52.1543 42.3297 51.6678 42.3339 51.1822 42.324C51.1248 42.3225 51.0563 42.2503 51.0149 42.1952C50.5052 41.5179 50.0013 40.8368 49.4901 40.1605C49.4506 40.1082 49.3691 40.0869 49.2587 40.0232V42.333C48.8411 42.3515 48.4462 42.3691 48.0266 42.3876V42.1292C48.0266 40.9114 48.029 39.6941 48.0247 38.4763C48.0237 38.2431 48.0122 38.008 47.9779 37.7776C47.9422 37.5349 47.7932 37.3587 47.5705 37.2418C47.5107 37.2105 47.462 37.1592 47.3597 37.0789C47.502 37.0723 47.5782 37.0661 47.6544 37.0661C48.5378 37.0656 49.4212 37.0519 50.3041 37.0718C50.7106 37.0808 51.1263 37.096 51.4966 37.3174C51.8819 37.5477 52.0757 37.875 52.0753 38.3181C52.0743 39.127 51.8105 39.4913 51.0293 39.7649C50.958 39.7895 50.8963 39.8399 50.8172 39.886L50.8177 39.8855ZM49.2616 39.5449C49.5567 39.5226 49.8248 39.5126 50.09 39.4803C50.4681 39.4338 50.7521 39.1711 50.8167 38.8306C50.9083 38.3442 50.7767 37.959 50.4464 37.7577C50.3928 37.7249 50.3335 37.685 50.2742 37.6798C49.9386 37.6503 49.602 37.6304 49.2616 37.6071V39.5449Z" fill="white"/>
<path d="M71.4938 33.3434C71.0526 33.3453 70.6104 33.3344 70.1696 33.3534C69.915 33.3643 69.8591 33.1539 69.7564 33.0228C69.2862 32.4234 68.8412 31.8045 68.3811 31.1975C68.331 31.131 68.2413 31.094 68.1203 31.0085V33.3391H66.908C66.9037 33.2717 66.8955 33.2033 66.895 33.1349C66.8892 31.8074 66.8844 30.4803 66.8786 29.1528C66.8766 28.7149 66.7706 28.3344 66.2985 28.1615C66.2811 28.1554 66.271 28.1292 66.2319 28.0813C66.3289 28.0813 66.3959 28.0813 66.4624 28.0813C67.41 28.0813 68.3575 28.0689 69.3041 28.087C69.7265 28.095 70.1426 28.1558 70.5115 28.4147C71.0458 28.7899 71.1871 29.9536 70.5188 30.429C70.2656 30.609 69.9739 30.7368 69.6879 30.8945C70.2772 31.662 70.8891 32.4595 71.5005 33.2565C71.4981 33.2854 71.4957 33.3144 71.4928 33.3434H71.4938ZM68.1241 28.5909V30.5093C68.3329 30.5093 68.5157 30.5069 68.6989 30.5093C69.2539 30.5169 69.5606 30.2908 69.672 29.7612C69.7024 29.6168 69.6807 29.4591 69.6686 29.309C69.6421 28.979 69.3841 28.7001 69.0471 28.6584C68.751 28.6218 68.4511 28.6132 68.1241 28.5904V28.5909Z" fill="white"/>
<path d="M48.5151 22.8462C49.1295 23.6474 49.7443 24.4482 50.3938 25.2951C49.8518 25.2951 49.3633 25.3283 48.885 25.2747C48.7442 25.259 48.626 25.0011 48.5084 24.8458C48.0884 24.292 47.6761 23.7325 47.2532 23.1806C47.1992 23.1103 47.1003 23.0727 46.9663 22.983V25.2894H45.7212V25.031C45.7212 23.7192 45.7285 22.4068 45.714 21.095C45.7116 20.8727 45.6527 20.6319 45.5496 20.4353C45.471 20.2852 45.2805 20.1921 45.1175 20.0543C45.1845 20.0444 45.2323 20.0311 45.2805 20.0311C46.2439 20.0296 47.2069 20.0206 48.1704 20.0344C48.586 20.0401 49.0104 20.1194 49.3383 20.3726C49.5311 20.5212 49.6855 20.781 49.7486 21.0185C49.968 21.8421 49.4906 22.527 48.7148 22.7298C48.6506 22.7464 48.5957 22.7973 48.5142 22.8457L48.5151 22.8462ZM46.9745 22.49C47.2079 22.49 47.4191 22.5109 47.6245 22.4852C47.9886 22.4396 48.3237 22.3142 48.4606 21.9371C48.5619 21.6578 48.546 21.0337 48.2972 20.8276C47.896 20.4951 47.435 20.5512 46.975 20.5459V22.49H46.9745Z" fill="white"/>
<path d="M72.0363 25.2898C72.0363 23.911 72.0392 22.5678 72.0334 21.2241C72.0324 21.0322 71.9977 20.8394 71.9654 20.6489C71.9123 20.3369 71.6539 20.2063 71.3443 20.0533C71.4538 20.0367 71.502 20.0234 71.5497 20.0234C72.4172 20.022 73.2852 20.0001 74.1512 20.0291C74.9329 20.0552 75.6687 20.2238 76.3096 20.7358C77.0184 21.302 77.4683 22.4448 77.0932 23.426C76.7122 24.4211 76.0024 25.0271 74.956 25.2342C74.6175 25.3012 74.2602 25.2831 73.9111 25.2874C73.2943 25.295 72.6776 25.2893 72.0367 25.2893L72.0363 25.2898ZM73.2876 20.6005V24.7536C75.1643 25.0048 75.9856 23.7937 75.9306 22.5051C75.906 21.9337 75.662 21.4611 75.2483 21.0555C74.686 20.5045 73.9902 20.5805 73.2881 20.6L73.2876 20.6005Z" fill="white"/>
<path d="M81.285 27.9941C82.6738 27.9547 83.7221 28.7839 84.0674 29.7842C84.5351 31.1388 83.9912 32.5153 82.6333 33.1531C81.6578 33.6115 80.663 33.5768 79.7439 33.0073C79.0698 32.5894 78.6314 31.979 78.4872 31.1778C78.3103 30.1936 78.6271 29.3781 79.3374 28.7094C79.8693 28.2083 80.5265 27.9646 81.285 27.9941ZM82.9202 30.7033C82.9202 29.9571 82.7611 29.4522 82.4307 29.0262C81.8931 28.3332 80.743 28.3047 80.2145 29.0818C79.9826 29.4223 79.8331 29.7885 79.7767 30.2027C79.6851 30.8747 79.7386 31.5145 80.0747 32.1182C80.2695 32.4682 80.541 32.7475 80.9229 32.8758C81.4466 33.052 82.0932 32.8601 82.4838 32.3177C82.8315 31.8342 82.9395 31.2842 82.9207 30.7028L82.9202 30.7033Z" fill="white"/>
<path d="M81.261 36.9993C82.641 37.0007 83.5997 37.4876 84.1007 38.608C84.6562 39.8501 84.2695 41.3077 82.9328 42.0553C82.1612 42.4866 81.3381 42.5531 80.5179 42.3132C79.5197 42.0211 78.7458 41.1648 78.5712 40.0448C78.3928 38.8982 79.1344 37.7175 80.0723 37.2796C80.4947 37.0824 80.9355 36.9547 81.2605 36.9998L81.261 36.9993ZM79.8317 39.7209C79.8351 40.1716 79.9407 40.6071 80.1379 41.0199C80.3371 41.4374 80.6476 41.7893 81.1004 41.8824C81.6863 42.0031 82.2177 41.8382 82.5952 41.3205C82.9362 40.8536 83.0548 40.3193 83.0524 39.7717C83.0504 39.3746 82.982 38.9619 82.8542 38.5852C82.6594 38.0105 82.2693 37.5755 81.6173 37.4938C80.9658 37.4121 80.5188 37.7436 80.1982 38.2727C79.9291 38.7168 79.8437 39.2055 79.8317 39.7209Z" fill="white"/>
<path d="M81.4447 25.4008C80.1032 25.4521 78.9237 24.4367 78.644 23.2635C78.4665 22.5188 78.618 21.8039 79.051 21.167C79.5057 20.4983 80.1475 20.1045 80.9596 19.9744C82.2943 19.7602 83.6484 20.3933 84.1465 21.5608C84.5568 22.5226 84.4372 23.4435 83.8118 24.297C83.4077 24.8484 82.8315 25.1391 82.1984 25.3286C81.9616 25.3994 81.6969 25.3799 81.4447 25.4013V25.4008ZM83.0634 22.6798C83.0875 22.1735 83.008 21.6804 82.7505 21.2216C82.1897 20.2209 80.8651 20.1553 80.2739 21.1779C79.9122 21.8035 79.8143 22.4717 79.9281 23.1866C80.0149 23.7313 80.1986 24.2096 80.6297 24.5768C81.2764 25.1263 82.005 24.9525 82.4761 24.44C82.9197 23.9574 83.1054 23.3499 83.063 22.6798H83.0634Z" fill="white"/>
<path d="M66.1461 21.6353V25.2749H65.4976V25.0189C65.4976 23.746 65.499 22.4731 65.4956 21.2007C65.4956 21.0454 65.4778 20.8887 65.4493 20.7357C65.3871 20.4037 65.1759 20.1881 64.8668 20.0228C65.2921 20.0228 65.7184 20.038 66.1427 20.0176C66.4219 20.0038 66.5965 20.086 66.774 20.3163C67.5421 21.3104 68.3397 22.2822 69.1281 23.2606C69.1445 23.2811 69.1773 23.2886 69.2298 23.3171V20.0404H69.8721V25.3381C69.658 25.3381 69.4512 25.3424 69.2453 25.3348C69.2053 25.3334 69.1575 25.2935 69.1295 25.2588C68.5147 24.4989 67.9038 23.7356 67.2885 22.9761C66.9263 22.5292 66.5584 22.0875 66.1929 21.6434C66.1765 21.6144 66.1601 21.585 66.1437 21.556C66.1447 21.5831 66.1452 21.6101 66.1461 21.6367V21.6353Z" fill="white"/>
<path d="M42.585 30.9495H44.25V33.1462C43.8479 33.2298 43.4351 33.3442 43.0146 33.3946C42.5975 33.4444 42.1693 33.4687 41.7517 33.4359C40.8765 33.3675 40.1556 32.9999 39.6454 32.267C39.236 31.679 39.128 31.016 39.2201 30.342C39.318 29.6272 39.6353 29.0083 40.2564 28.5523C40.9715 28.0275 41.7522 27.9339 42.6057 28.0308C42.9987 28.0755 43.3758 28.1415 43.7447 28.2764C43.8855 28.3281 43.9173 28.3927 43.8469 28.5214C43.7533 28.6929 43.6685 28.8691 43.5764 29.0496C43.3165 28.9066 43.0797 28.7594 42.829 28.6421C42.138 28.3191 41.3143 28.6055 40.903 29.222C40.295 30.1335 40.3644 31.7241 41.1677 32.4698C41.7025 32.9662 42.3178 33.0355 42.9895 32.8241C43.0377 32.8089 43.1053 32.7467 43.1057 32.7063C43.1072 32.3686 43.1019 32.0305 43.0855 31.6932C43.0691 31.366 42.8468 31.1798 42.583 31.0288L42.5859 30.9485L42.585 30.9495Z" fill="white"/>
<path d="M40.9522 40.1894V42.3334H39.738C39.7351 42.275 39.7298 42.2213 39.7293 42.1677C39.7235 40.9266 39.7124 39.685 39.7153 38.444C39.7163 37.8901 39.7168 37.3496 39.0701 37.0789C39.1362 37.0742 39.2027 37.0656 39.2688 37.0656C40.1363 37.0647 41.0043 37.0499 41.8713 37.0727C42.2064 37.0813 42.5478 37.1459 42.8714 37.2366C43.4086 37.3881 43.6906 37.8004 43.7697 38.3143C43.8387 38.7636 43.8073 39.2186 43.4968 39.6081C43.2166 39.9596 42.8391 40.1472 42.4065 40.1809C41.9296 40.2179 41.4479 40.1894 40.9522 40.1894ZM40.9623 37.5534V39.6675C41.2092 39.6675 41.4431 39.6698 41.6769 39.6675C42.0897 39.6627 42.4403 39.3606 42.4818 38.9498C42.5044 38.7242 42.5145 38.49 42.4789 38.2677C42.4321 37.9747 42.2334 37.7562 41.946 37.6854C41.6364 37.609 41.3105 37.5971 40.9623 37.5534Z" fill="white"/>
<path d="M45.2858 28.0947H46.5097C46.5097 28.184 46.5092 28.2681 46.5097 28.3522C46.5174 29.5058 46.5179 30.6595 46.5367 31.8132C46.5453 32.3646 46.9586 32.8273 47.5676 32.7855C47.8391 32.7669 48.1333 32.7826 48.3753 32.6838C48.968 32.4416 49.1975 31.9248 49.2173 31.3302C49.2418 30.5797 49.2293 29.8283 49.2211 29.0774C49.2177 28.7573 49.1859 28.4372 49.1661 28.1028H49.8504C49.8504 28.1864 49.8504 28.2633 49.8504 28.3403C49.8504 29.3681 49.862 30.3959 49.8475 31.4233C49.8321 32.5299 49.3696 33.1455 48.2866 33.3801C47.4813 33.5549 46.6485 33.5297 45.9368 33.0115C45.5587 32.7361 45.2969 32.3566 45.2911 31.8797C45.2752 30.6244 45.2858 29.3691 45.2858 28.0947Z" fill="white"/>
<path d="M73.034 16.4563C72.612 16.4563 72.219 16.462 71.8265 16.4506C71.7595 16.4487 71.6577 16.3889 71.6351 16.3314C71.4846 15.9472 71.3419 15.5591 71.216 15.1663C71.1186 14.8624 71.0579 14.803 70.7324 14.803C70.2666 14.803 69.8008 14.8073 69.3354 14.8001C69.1994 14.7982 69.1305 14.8277 69.0794 14.9683C68.9275 15.3848 68.7413 15.79 68.5875 16.206C68.5147 16.4036 68.4144 16.5048 68.1897 16.4673C68.0812 16.4492 67.9669 16.4639 67.8266 16.4639C67.8507 16.377 67.8623 16.3058 67.8893 16.2412C68.277 15.315 68.6748 14.3926 69.0524 13.4626C69.2761 12.9112 69.4613 12.3446 69.6788 11.7903C69.7694 11.5599 69.6841 11.4269 69.4902 11.3206C69.4391 11.2925 69.3918 11.2564 69.2882 11.1885C69.8393 11.1885 70.3312 11.1857 70.8226 11.1933C70.8679 11.1937 70.9344 11.2512 70.9532 11.2973C71.6293 12.9473 72.301 14.5992 72.9727 16.2516C72.9954 16.3077 73.0074 16.3675 73.034 16.4563ZM70.8756 14.2307C70.6393 13.598 70.4083 12.9815 70.1619 12.3227C69.8919 12.991 69.6436 13.6051 69.3904 14.2307H70.8756Z" fill="white"/>
<path d="M57.8333 11.1966C58.3184 11.1966 58.8035 11.189 59.2877 11.2052C59.3556 11.2075 59.4487 11.3135 59.481 11.3909C60.1007 12.8956 60.7135 14.4031 61.326 15.9101C61.3954 16.0802 61.4557 16.254 61.5314 16.4554C61.0964 16.4554 60.6827 16.4587 60.2694 16.4511C60.2217 16.4502 60.1494 16.4013 60.1325 16.3576C59.9488 15.8869 59.7776 15.4114 59.5914 14.9417C59.5683 14.8828 59.481 14.8097 59.4222 14.8087C58.8286 14.7987 58.235 14.8025 57.6371 14.8025C57.4225 15.3055 57.1992 15.7985 57.0068 16.3029C56.9552 16.4383 56.8983 16.4692 56.7744 16.4644C56.6244 16.4587 56.4745 16.463 56.2927 16.463C56.4373 16.1111 56.5685 15.7881 56.7025 15.4661C57.1669 14.3475 57.6327 13.2295 58.0947 12.11C58.141 11.9979 58.1738 11.8782 58.193 11.759C58.2389 11.4764 58.0628 11.3268 57.8338 11.1957L57.8333 11.1966ZM59.3629 14.2278C59.1271 13.6013 58.8951 12.9844 58.6536 12.3432C58.3801 12.981 58.1173 13.5947 57.8459 14.2278H59.3624H59.3629Z" fill="white"/>
<path d="M44.2616 25.2976C43.802 25.2976 43.4013 25.3024 43.0006 25.2924C42.9432 25.291 42.8564 25.2288 42.8357 25.1751C42.663 24.7277 42.5 24.2765 42.3404 23.8243C42.2966 23.7008 42.2387 23.6452 42.0907 23.6486C41.5689 23.66 41.0467 23.6476 40.5249 23.659C40.4429 23.6609 40.3166 23.7208 40.2886 23.7863C40.0712 24.2964 39.873 24.8141 39.6758 25.3114H39.0098C39.4308 24.3054 39.8387 23.3308 40.2467 22.3557C40.4323 21.9111 40.6334 21.4723 40.7979 21.0201C40.9218 20.68 41.105 20.3024 40.5461 20.0816C40.5674 20.0645 40.5881 20.0479 40.6093 20.0308C40.9396 20.0308 41.2699 20.0308 41.6002 20.0308C42.1056 20.0308 42.1133 20.0279 42.2985 20.4872C42.8304 21.8052 43.354 23.1261 43.8845 24.4446C43.9949 24.7191 44.1232 24.987 44.2611 25.2981L44.2616 25.2976ZM40.592 23.0929H42.095C41.8602 22.4664 41.6311 21.856 41.3799 21.1868C41.1012 21.8608 40.849 22.4711 40.592 23.0929Z" fill="white"/>
<path d="M60.4175 20.0356H61.9012C62.6033 21.7788 63.3088 23.5295 64.0181 25.2902H62.6598C62.4731 24.7929 62.2914 24.2946 62.0951 23.8016C62.0695 23.7375 61.9707 23.6615 61.9046 23.6601C61.3665 23.6487 60.8283 23.6601 60.2902 23.6496C60.1185 23.6463 60.0766 23.7532 60.0303 23.8686C59.8601 24.2927 59.699 24.7202 59.5196 25.1406C59.4916 25.2066 59.3923 25.2731 59.3185 25.2835C59.1613 25.3054 58.9993 25.2902 58.8045 25.2902C59.0167 24.771 59.2182 24.2723 59.4237 23.7755C59.7057 23.0911 59.9951 22.409 60.2723 21.7227C60.4103 21.3822 60.5409 21.0383 60.6523 20.6887C60.7459 20.3938 60.6904 20.2921 60.4156 20.115C60.4165 20.0884 60.4175 20.0622 60.418 20.0356H60.4175ZM61.1519 21.1775C60.8819 21.8391 60.6306 22.4546 60.3731 23.0844H61.8675C61.6293 22.4494 61.3983 21.8339 61.1519 21.1775Z" fill="white"/>
<path d="M61.6365 28.0972H65.7989V28.6467H63.5026V30.3347H65.3128V30.9047H63.5045V32.776H65.8968V33.3374H62.2445V33.0952C62.2445 31.8062 62.2465 30.5171 62.2421 29.2285C62.2416 29.0594 62.219 28.888 62.1828 28.7222C62.1177 28.4239 61.8973 28.2558 61.6365 28.0972Z" fill="white"/>
<path d="M62.2065 37.083H66.3747V37.6283H64.0548V39.3277H65.8443V39.9019H64.05V41.7595H66.4716V42.3209H62.8155V42.0725C62.8155 40.8148 62.817 39.5576 62.8136 38.2999C62.8136 38.1365 62.7986 37.9712 62.7702 37.8107C62.72 37.5299 62.571 37.3143 62.2957 37.1975C62.2682 37.1856 62.2441 37.1642 62.2224 37.1433C62.2132 37.1348 62.2147 37.1153 62.2074 37.0835L62.2065 37.083Z" fill="white"/>
<path d="M66.6847 11.6504C66.461 11.8912 66.2888 12.077 66.1162 12.2627C65.8886 12.1045 65.6682 11.9283 65.4262 11.7887C65.0848 11.5915 64.7115 11.5778 64.3291 11.6656C64.021 11.7364 63.8416 11.9435 63.7963 12.2256C63.7486 12.5201 63.9313 12.7381 64.1922 12.8583C64.6329 13.0611 65.0862 13.2373 65.5323 13.4292C65.9156 13.594 66.2811 13.7982 66.5092 14.1525C66.9239 14.7971 66.8188 15.757 65.9238 16.2576C65.3977 16.5516 64.8326 16.6095 64.2293 16.5236C63.722 16.4514 63.2664 16.2885 62.8324 16.0325C62.72 15.966 62.6959 15.9151 62.7846 15.8216C62.9399 15.6582 63.0952 15.4948 63.2331 15.3499C63.5046 15.5318 63.763 15.7271 64.0422 15.8866C64.4753 16.1336 65.1658 16.0956 65.5679 15.7774C65.8645 15.5432 65.9084 15.0374 65.4657 14.8028C65.0308 14.5719 64.5717 14.3839 64.1179 14.1886C63.5292 13.9355 63.0267 13.6025 62.8401 12.949C62.7084 12.4878 62.9775 11.8248 63.37 11.5312C64.0905 10.9917 64.8774 11.0154 65.6827 11.2415C66.0164 11.3351 66.3284 11.5037 66.6847 11.6519V11.6504Z" fill="white"/>
<path d="M85.3216 18.3677V18.5572H38.1091C38.1057 18.5011 38.1024 18.4418 38.098 18.3677H85.3216Z" fill="white"/>
<path d="M55.0153 15.4895C55.0153 15.6372 55.0153 15.7398 55.0153 15.8419C55.0153 16.2466 55.0168 16.2508 54.6382 16.3653C53.9111 16.5852 53.1733 16.6489 52.4287 16.4622C51.3124 16.182 50.578 15.4178 50.402 14.3049C50.2757 13.5089 50.4237 12.7257 50.9701 12.0802C51.4991 11.4547 52.1891 11.1212 53.0228 11.1013C53.6415 11.0866 54.2539 11.1284 54.8417 11.3407C55.1064 11.4361 55.1108 11.4523 54.9801 11.7111C54.9058 11.8579 54.8311 12.0042 54.754 12.1557C54.5061 12.0185 54.2828 11.8745 54.0427 11.7653C53.1689 11.3687 52.2807 11.7776 51.9229 12.5998C51.5159 13.5355 51.5424 14.4531 52.1298 15.3099C52.6438 16.0604 53.4867 16.2171 54.2891 15.8699C54.5273 15.7669 54.7506 15.6291 55.0163 15.4885L55.0153 15.4895Z" fill="white"/>
<path d="M85.3245 26.5669V26.7493H38.1149C38.1101 26.7013 38.1048 26.6448 38.097 26.5669H85.3245Z" fill="white"/>
<path d="M38.0695 34.8956C38.125 34.8543 38.1771 34.8063 38.2378 34.775C38.2692 34.7588 38.3164 34.7721 38.3569 34.7721C47.9292 34.7669 57.5015 34.7602 67.0739 34.7569C73.0571 34.7545 79.0399 34.7569 85.0231 34.7569C85.1181 34.7569 85.2126 34.7569 85.3197 34.7569C85.323 34.831 85.3259 34.8904 85.3293 34.9602H38.1264L38.07 34.8961L38.0695 34.8956Z" fill="white"/>
<path d="M75.0515 37.0771V37.6219H73.3532V42.3165H72.098V37.6362H70.4108V37.0771H75.0511H75.0515Z" fill="white"/>
<path d="M59.1483 32.7747H61.5574V33.337H57.9148C57.9148 33.253 57.9148 33.1698 57.9148 33.0867C57.9148 31.838 57.9177 30.5894 57.9119 29.3402C57.911 29.1393 57.8864 28.9365 57.8493 28.7389C57.7914 28.4302 57.5749 28.2449 57.2981 28.0996H59.1483V32.7747Z" fill="white"/>
<path d="M52.9635 28.0947H54.8084V32.7774H57.2214V33.3383H53.5691V33.0947C53.5691 31.8061 53.5711 30.518 53.5667 29.2294C53.5663 29.0603 53.5446 28.8889 53.5079 28.7236C53.4423 28.4253 53.2181 28.2586 52.963 28.0947H52.9635Z" fill="white"/>
<path d="M52.2995 28.0898V33.3334H51.081V28.0898H52.2995Z" fill="white"/>
<path d="M56.771 37.0718H57.9876V42.3173H56.771V37.0718Z" fill="white"/>
<path d="M66.146 21.6349C66.1451 21.6079 66.1446 21.5808 66.1437 21.5542C66.1596 21.5832 66.1755 21.6126 66.1914 21.6416C66.1765 21.6383 66.1615 21.6359 66.146 21.6349Z" fill="white"/>
<path d="M42.5845 30.9492L42.5816 31.0295C42.5509 31.0091 42.5202 30.9891 42.4894 30.9687C42.5211 30.962 42.5528 30.9559 42.585 30.9492H42.5845Z" fill="white"/>
<path d="M76.3149 29.7447C76.3354 29.7172 76.3559 29.6896 76.3764 29.6616C76.3749 29.6906 76.3735 29.7196 76.3721 29.7485L76.3149 29.7447Z" fill="white"/>
<path d="M52.4104 21.7302C52.4094 21.7031 52.409 21.676 52.408 21.6494C52.4239 21.6784 52.4399 21.7078 52.4558 21.7368C52.4408 21.7335 52.4258 21.7311 52.4104 21.7302Z" fill="white"/>
<path d="M60.4171 20.0356C60.4161 20.0622 60.4152 20.0884 60.4147 20.115L60.3225 20.0532C60.3542 20.0475 60.3859 20.0413 60.4176 20.0356H60.4171Z" fill="white"/>
<path d="M71.4938 33.3438C71.4961 33.3148 71.4985 33.2858 71.5013 33.2568C71.5148 33.2787 71.5284 33.3005 71.542 33.3229C71.5261 33.33 71.5097 33.3371 71.4938 33.3438Z" fill="white"/>
<path d="M51.2115 20.0356C51.2216 20.0472 51.2211 20.0578 51.2091 20.0674C51.1975 20.0573 51.1855 20.0472 51.174 20.0371C51.1865 20.0366 51.199 20.0361 51.2115 20.0356Z" fill="white"/>
<path d="M30.0509 13.2434V25.1137C28.6679 25.554 27.3061 25.9876 25.9367 26.4236V17.4064H7.67642V26.5162C7.38757 26.4079 7.12477 26.3096 6.86197 26.2108C5.82088 25.8185 4.76726 25.467 3.67505 25.2376C3.62394 25.2267 3.56897 25.1602 3.54727 25.1075C3.52509 25.0529 3.54196 24.9831 3.54196 24.9194C3.54196 21.1235 3.54534 17.3276 3.53473 13.5317C3.53425 13.2762 3.60658 13.1911 3.8554 13.1394C4.7605 12.9518 5.65645 12.7214 6.56203 12.5362C7.2352 12.3984 7.91656 12.3001 8.59599 12.1942C9.246 12.0926 9.8965 11.9933 10.5494 11.9125C10.9646 11.8612 11.3841 11.8394 11.8022 11.8142C12.6591 11.7629 13.5155 11.696 14.3728 11.6755C15.8122 11.6413 17.2526 11.6271 18.6929 11.6285C19.3439 11.629 19.9959 11.6736 20.6459 11.7221C21.2684 11.7682 21.8885 11.8446 22.5101 11.9078C23.1379 11.9714 23.7677 12.0223 24.3936 12.1025C25.0084 12.1814 25.6228 12.274 26.2318 12.3899C27.0573 12.5471 27.879 12.7262 28.6997 12.9071C29.152 13.0069 29.5986 13.1303 30.0509 13.2439V13.2434Z" fill="white"/>
<path d="M30.0581 26.2314C30.0581 26.9429 30.062 27.5979 30.0514 28.2534C30.0504 28.3099 29.9665 28.3959 29.9038 28.4158C29.5306 28.535 29.1419 28.6139 28.7774 28.7535C27.9658 29.0641 27.1494 29.3695 26.363 29.7357C24.4925 30.6063 22.8269 31.7762 21.322 33.1749C20.3325 34.0945 19.4611 35.1085 18.6597 36.1886C17.8684 37.2549 17.2015 38.391 16.6571 39.5931C16.3181 40.3417 16.0307 41.1139 15.7486 41.8853C15.6821 42.0667 15.5837 42.0686 15.468 42.0254C14.9269 41.824 14.3917 41.607 13.853 41.3989C13.7122 41.3443 13.6838 41.2674 13.7412 41.1272C14.0884 40.2818 14.4138 39.4278 14.775 38.5886C15.2751 37.4254 15.9323 36.3448 16.6667 35.3132C17.0954 34.711 17.5535 34.1263 18.0352 33.5644C18.5565 32.9565 19.0927 32.3551 19.6747 31.8047C20.2534 31.2575 20.8832 30.7597 21.5153 30.2715C22.0757 29.8393 22.6456 29.4085 23.2556 29.0518C24.1246 28.5436 25.021 28.0757 25.9314 27.6435C26.5833 27.3338 27.2695 27.0892 27.9552 26.856C28.6327 26.6257 29.3285 26.4461 30.0586 26.2314H30.0581Z" fill="white"/>
<path d="M16.7612 33.4842C16.5057 33.1883 16.2313 32.8644 15.9497 32.5462C15.6478 32.2056 15.3354 31.8736 15.0364 31.5307C14.9915 31.4789 14.9756 31.3882 14.9756 31.3151C14.9727 28.9906 14.9703 26.6661 14.9747 24.3417C14.9761 23.4696 15.3151 22.7472 16.0563 22.2537C16.6156 21.8813 17.3047 21.954 17.8303 22.3444C18.4398 22.7975 18.7253 23.4112 18.772 24.1464C18.7909 24.4428 18.8179 24.7392 18.8183 25.0361C18.8227 27.0523 18.8183 29.068 18.8241 31.0842C18.8241 31.2315 18.7754 31.3274 18.6761 31.4324C18.0338 32.1111 17.4002 32.7974 16.7617 33.4837L16.7612 33.4842Z" fill="white"/>
<path d="M30.0827 29.5087C29.992 29.9609 29.9139 30.3879 29.818 30.8111C29.7673 31.0329 29.6521 31.2433 29.6232 31.4661C29.5778 31.8142 29.2904 31.865 29.0527 31.9733C28.3935 32.2735 27.7126 32.5309 27.0684 32.8587C26.0702 33.3669 25.1266 33.9758 24.2875 34.7082C23.5083 35.3888 22.7883 36.1378 22.0684 36.8811C21.3436 37.6297 20.7713 38.4974 20.25 39.3889C19.8763 40.0278 19.5542 40.7008 19.2663 41.3819C19.126 41.7129 18.8347 41.7371 18.5922 41.8369C18.0752 42.0497 17.5337 42.2064 17.0023 42.3845C16.9517 42.4016 16.8972 42.4159 16.8442 42.4182C16.6026 42.4282 16.5674 42.3916 16.6542 42.1717C16.9473 41.4279 17.2352 40.6813 17.5525 39.9475C18.001 38.9111 18.5825 37.945 19.2538 37.0345C19.6612 36.4822 20.0865 35.9407 20.533 35.4182C20.9424 34.9395 21.3668 34.4688 21.8273 34.0385C22.702 33.2211 23.624 32.4526 24.6651 31.8451C25.4892 31.3644 26.3287 30.9066 27.1822 30.4791C27.6316 30.254 28.1235 30.1082 28.6009 29.94C29.0209 29.7923 29.4471 29.6626 29.872 29.5282C29.9216 29.5125 29.9776 29.5168 30.0837 29.5073L30.0827 29.5087Z" fill="white"/>
<path d="M16.1778 34.3006C15.7573 34.9422 15.3474 35.5673 14.9317 36.2014C12.0529 32.3081 8.28256 29.6787 3.55017 28.3996V26.2651C8.7286 27.4977 12.8944 30.2263 16.1778 34.3006Z" fill="white"/>
<path d="M3.5497 29.5C4.59802 29.774 5.58944 30.1265 6.54807 30.5634C8.05979 31.2526 9.46157 32.1208 10.737 33.1743C12.01 34.2249 13.1495 35.4 14.1178 36.7389C14.3603 37.0747 14.3598 37.2936 14.18 37.6285C13.8704 38.2061 13.6148 38.8116 13.3342 39.4091C13.1524 39.1251 12.9725 38.8164 12.7652 38.5266C12.4199 38.0436 12.0857 37.5482 11.6952 37.1022C11.1493 36.4791 10.576 35.8759 9.97609 35.3031C9.54162 34.8884 9.05989 34.518 8.57335 34.1613C7.61182 33.4555 6.57315 32.8708 5.49059 32.365C5.13954 32.2011 4.7803 32.033 4.40562 31.9432C4.03866 31.8553 3.93595 31.5732 3.84192 31.3139C3.63505 30.742 3.50486 30.1473 3.54825 29.499L3.5497 29.5Z" fill="white"/>
<path d="M13.286 29.9411C13.0251 29.7478 12.8129 29.5849 12.596 29.4296C12.0144 29.014 11.4401 28.5875 10.8441 28.1923C10.441 27.9254 10.0026 27.7107 9.58938 27.458C9.51368 27.4119 9.43845 27.296 9.43749 27.2115C9.42447 26.1846 9.37191 25.1544 9.4399 24.1323C9.49294 23.3349 9.8464 22.621 10.6015 22.2106C11.1546 21.91 11.6981 21.9418 12.2261 22.2918C12.8375 22.6975 13.1597 23.2907 13.2276 24.0107C13.2609 24.3612 13.2826 24.7137 13.2836 25.0656C13.2894 26.6691 13.286 28.2726 13.286 29.9406V29.9411Z" fill="white"/>
<path d="M20.5071 29.7702C20.5071 27.8295 20.4776 25.9339 20.521 24.0407C20.5394 23.2428 21.1735 22.3151 21.9383 22.0957C22.4793 21.9404 22.9591 22.0302 23.3955 22.3674C23.9558 22.8001 24.2808 23.3724 24.3083 24.0697C24.3488 25.0932 24.3488 26.1182 24.357 27.1427C24.357 27.1992 24.2895 27.2795 24.2321 27.3094C23.1867 27.8546 22.2064 28.5001 21.254 29.1883C21.0076 29.3665 20.7742 29.5621 20.5066 29.7711L20.5071 29.7702Z" fill="white"/>
<path d="M28.8748 33.1787C27.1085 36.8668 24.1419 39.311 20.4405 41.0712C22.2849 37.3878 25.0919 34.7798 28.8748 33.1787Z" fill="white"/>
<path d="M4.72676 33.2007C4.85262 33.2505 4.98137 33.2952 5.10481 33.3503C6.22546 33.8514 7.29114 34.4508 8.2652 35.1898C10.1733 36.6375 11.712 38.4025 12.8404 40.5042C12.8722 40.5635 12.892 40.6386 12.8891 40.7046C12.8823 40.8599 12.8245 40.943 12.6465 40.8495C11.7053 40.3541 10.79 39.8226 9.9105 39.2208C8.88147 38.5174 7.97829 37.6838 7.12671 36.7966C6.35518 35.9925 5.69889 35.0915 5.15834 34.1159C4.99921 33.8286 4.84201 33.5398 4.68433 33.252C4.69879 33.2349 4.71278 33.2173 4.72724 33.2002L4.72676 33.2007Z" fill="white"/>
</svg>
