<svg width="26" height="47" viewBox="0 0 26 47" fill="none" xmlns="http://www.w3.org/2000/svg">
<path d="M25.8905 34.1206C25.8905 23.5179 20.5107 5.14899 13.0181 0.854248C5.52541 5.14004 0.145611 23.5179 0.145611 34.1206C0.145611 42.1911 3.12847 43.9716 8.39286 46.3069H17.6344C22.9077 43.9716 25.8816 42.1821 25.8816 34.1206H25.8905ZM19.0193 26.9537L17.6788 33.36L15.4061 34.6127L15.122 32.2595L19.0193 26.9537ZM22.9165 31.3379L18.6908 37.2432H15.6724L15.4771 35.5074L22.9165 31.3469V31.3379ZM13.0624 21.7821L14.98 37.7353L13.0358 39.829L11.0916 37.7353C11.3224 35.9458 12.3079 28.1795 13.0713 21.7821H13.0624ZM10.9141 32.2685L10.63 34.6216L8.35735 33.369L7.01684 26.9627L10.9141 32.2685ZM10.5146 35.5074L10.3193 37.2432H7.30092L3.0752 31.3379L10.5146 35.4985V35.5074ZM14.9889 41.0637H8.52602L3.34153 38.0664H10.2305L12.3878 40.4016L12.9825 41.0458L13.5773 40.4016L15.7257 38.0753H22.6413L17.4302 41.0727H14.98L14.9889 41.0637Z" fill="#E5C861"/>
</svg>
