<svg width="29" height="38" viewBox="0 0 29 38" fill="none" xmlns="http://www.w3.org/2000/svg">
<path d="M28.5682 9.29673V9.53665C28.5682 13.3293 28.5674 17.1219 28.569 20.9142C28.569 21.5839 28.5865 22.2536 28.5792 22.9234C28.5735 23.44 28.5641 23.9585 28.5158 24.4723C28.4333 25.3468 28.3028 26.2143 27.9952 27.0497C27.6433 28.0043 27.2154 28.9245 26.6322 29.769C26.1897 30.4098 25.7544 31.0631 25.2351 31.6442C24.6528 32.2959 23.9904 32.8832 23.343 33.4784C22.6981 34.0711 21.9666 34.56 21.216 35.0214C20.3127 35.5771 19.3768 36.0753 18.3799 36.4602C17.863 36.6599 17.3429 36.8529 16.8191 37.0358C16.3192 37.2104 15.8019 37.3429 15.3118 37.539C14.7717 37.7551 14.289 37.5707 13.7956 37.4179C12.6049 37.0494 11.4338 36.6333 10.3089 36.1007C9.13246 35.5435 8.01087 34.9042 6.96485 34.1419C6.21834 33.5979 5.51247 33.0095 4.87039 32.3553C4.05358 31.523 3.3343 30.6165 2.73083 29.6279C2.181 28.7276 1.73724 27.7816 1.42067 26.7824C1.23333 26.1912 1.07078 25.5938 1.02446 24.9737C0.995197 24.5833 0.959843 24.1933 0.94562 23.8026C0.932209 23.4255 0.942775 23.0477 0.942775 22.6702C0.93993 18.2731 0.938711 13.8756 0.931396 9.47804C0.931396 9.33151 0.983006 9.25688 1.11589 9.21428C1.49788 9.09198 1.87622 8.95756 2.26228 8.84815C2.97303 8.64652 3.68744 8.45662 4.40184 8.26632C4.75945 8.17098 5.11747 8.07681 5.47955 7.99944C5.79368 7.93223 6.11268 7.88769 6.43006 7.8365C6.76695 7.78179 7.10465 7.73099 7.44194 7.67863C7.77314 7.62705 8.10352 7.56844 8.43593 7.52507C9.0711 7.44223 9.70748 7.36525 10.3439 7.2914C10.5422 7.26835 10.7429 7.25975 10.9429 7.25076C11.9877 7.20426 13.0324 7.14565 14.0776 7.11869C14.8006 7.10032 15.5243 7.12377 16.2481 7.13432C16.4887 7.13783 16.7292 7.15542 16.969 7.17261C17.6733 7.22263 18.3775 7.27342 19.0818 7.32852C19.5255 7.3633 19.9697 7.39612 20.4114 7.4477C20.856 7.49967 21.2977 7.57352 21.7407 7.63956C22.2612 7.71693 22.7838 7.78296 23.3007 7.8787C23.8595 7.98225 24.4179 8.094 24.9665 8.2378C25.9544 8.49648 26.9358 8.77899 27.9176 9.05877C28.133 9.12011 28.3386 9.21194 28.5686 9.29673H28.5682ZM27.2548 10.2005C27.1 10.1451 26.9577 10.0802 26.8078 10.0427C25.9804 9.83519 25.153 9.62692 24.3216 9.4335C23.1967 9.17169 22.0597 8.97436 20.9088 8.84932C20.2448 8.77703 19.5832 8.68364 18.918 8.61956C18.3474 8.56486 17.7744 8.52813 17.2015 8.50195C16.5293 8.47108 15.8564 8.4449 15.1838 8.44529C14.4702 8.44568 13.7566 8.47264 13.0434 8.50116C12.2815 8.53164 11.5191 8.56798 10.7584 8.61956C10.2362 8.65473 9.71602 8.71647 9.19545 8.77352C8.64359 8.83408 8.09011 8.88527 7.54272 8.97241C6.83807 9.08456 6.13747 9.22288 5.43688 9.36004C4.95004 9.45538 4.46361 9.55541 3.98246 9.67537C3.49156 9.79768 3.00919 9.95241 2.51951 10.0806C2.34396 10.1263 2.28219 10.1998 2.28341 10.3838C2.29154 11.6913 2.28341 12.9991 2.28219 14.3066C2.27934 17.3775 2.28016 20.4484 2.27325 23.5189C2.27162 24.2074 2.29235 24.8959 2.45205 25.5657C2.77065 26.9028 3.3343 28.1489 4.09503 29.3079C4.83707 30.4383 5.73557 31.4429 6.78117 32.328C7.4265 32.8743 8.10596 33.3717 8.82524 33.8242C9.65709 34.3478 10.53 34.794 11.4325 35.191C12.4168 35.624 13.4344 35.971 14.4686 36.273C14.5962 36.3101 14.7449 36.3336 14.8721 36.3082C15.0863 36.2652 15.2927 36.1824 15.4987 36.1077C16.4111 35.7775 17.3388 35.4806 18.2288 35.1023C19.2931 34.6498 20.3204 34.1153 21.2538 33.4397C21.8829 32.9845 22.5026 32.5124 23.0817 32.0009C23.5478 31.5891 23.9579 31.1155 24.3732 30.6536C24.9588 30.0026 25.4407 29.2797 25.8597 28.5213C26.2636 27.7898 26.579 27.0232 26.837 26.2303C27.1227 25.3523 27.2446 24.4524 27.2479 23.5447C27.2637 19.1597 27.2548 14.7743 27.2548 10.3889C27.2548 10.324 27.2548 10.2595 27.2548 10.2002V10.2005Z" fill="black"/>
<path d="M22.3519 1.72008C22.1613 3.24753 21.9711 4.77498 21.7764 6.33603C17.0507 5.50881 12.3408 5.44629 7.60287 6.33603C7.41512 4.7699 7.22697 3.20377 7.03232 1.57824C7.24729 1.73923 7.42569 1.86857 7.59921 2.00416C8.34491 2.58677 9.08898 3.17133 9.83468 3.75433C9.93546 3.83327 10.0009 3.86218 10.0484 3.68869C10.211 3.09123 10.3959 2.49963 10.5702 1.9053C10.6308 1.69937 10.6844 1.49189 10.745 1.28596C10.7507 1.26681 10.7852 1.25509 10.8287 1.22422C11.5228 2.04402 12.2152 2.86225 12.9292 3.70549C13.5364 2.74541 14.1252 1.81425 14.7303 0.857697C15.2594 1.81933 15.7743 2.75479 16.3107 3.72933C17.1019 2.8095 17.8756 1.91038 18.6827 0.972577C18.9046 1.94633 19.1187 2.88648 19.3398 3.85632C20.3562 3.11819 21.3286 2.4121 22.3011 1.70641C22.3181 1.7111 22.3356 1.71579 22.3527 1.72047L22.3519 1.72008Z" fill="black"/>
<path d="M25.9223 11.0036V20.7693C24.7568 21.1315 23.6092 21.4883 22.4551 21.847V14.4286H7.06647V21.9232C6.82305 21.8341 6.60158 21.7532 6.3801 21.6719C5.50274 21.3491 4.61481 21.06 3.69437 20.8713C3.65129 20.8623 3.60497 20.8076 3.58668 20.7642C3.56799 20.7193 3.58221 20.6618 3.58221 20.6095C3.58221 17.4866 3.58505 14.3637 3.57611 11.2408C3.57571 11.0306 3.63666 10.9606 3.84635 10.918C4.60912 10.7637 5.36417 10.5742 6.12734 10.4218C6.69464 10.3085 7.26885 10.2276 7.84143 10.1405C8.38922 10.0568 8.93743 9.97516 9.48766 9.90874C9.83755 9.86654 10.1911 9.84856 10.5434 9.82785C11.2656 9.78565 11.9873 9.73055 12.7098 9.71375C13.9228 9.68562 15.1367 9.6739 16.3505 9.67507C16.8991 9.67546 17.4486 9.71219 17.9963 9.75205C18.521 9.78995 19.0436 9.85286 19.5674 9.90483C20.0965 9.95719 20.6272 9.999 21.1547 10.065C21.6728 10.1299 22.1906 10.2061 22.7038 10.3014C23.3995 10.4308 24.092 10.5781 24.7836 10.727C25.1648 10.809 25.5411 10.9106 25.9223 11.004V11.0036Z" fill="black"/>
<path d="M25.9284 21.6887C25.9284 22.274 25.9317 22.8129 25.9227 23.3521C25.9219 23.3986 25.8512 23.4693 25.7984 23.4857C25.4838 23.5838 25.1563 23.6487 24.8491 23.7635C24.1651 24.0191 23.4771 24.2704 22.8143 24.5716C21.238 25.2879 19.8344 26.2503 18.5661 27.401C17.7322 28.1575 16.9979 28.9918 16.3225 29.8804C15.6556 30.7576 15.0936 31.6923 14.6348 32.6813C14.3491 33.2971 14.1069 33.9325 13.8692 34.567C13.8131 34.7163 13.7302 34.7179 13.6327 34.6823C13.1767 34.5166 12.7257 34.3381 12.2717 34.1669C12.1531 34.122 12.1291 34.0587 12.1775 33.9434C12.4701 33.2479 12.7444 32.5453 13.0487 31.8548C13.4701 30.8979 14.024 30.0089 14.6429 29.1602C15.0042 28.6647 15.3903 28.1837 15.7962 27.7215C16.2355 27.2213 16.6874 26.7266 17.1779 26.2737C17.6656 25.8236 18.1963 25.4141 18.729 25.0124C19.2013 24.6568 19.6816 24.3024 20.1957 24.0089C20.9279 23.5908 21.6834 23.2059 22.4506 22.8504C23.0001 22.5956 23.5783 22.3944 24.1562 22.2025C24.7272 22.013 25.3136 21.8653 25.9288 21.6887H25.9284Z" fill="black"/>
<path d="M14.7226 27.6553C14.5072 27.4119 14.2759 27.1454 14.0386 26.8836C13.7842 26.6034 13.5209 26.3303 13.2689 26.0481C13.2312 26.0056 13.2177 25.9309 13.2177 25.8707C13.2153 23.9584 13.2133 22.0461 13.2169 20.1337C13.2182 19.4163 13.5038 18.822 14.1284 18.416C14.5998 18.1096 15.1805 18.1694 15.6235 18.4906C16.1371 18.8634 16.3777 19.3683 16.4171 19.9731C16.433 20.217 16.4557 20.4608 16.4562 20.705C16.4598 22.3638 16.4562 24.0221 16.461 25.6808C16.461 25.802 16.42 25.8809 16.3363 25.9673C15.795 26.5256 15.261 27.0903 14.723 27.6549L14.7226 27.6553Z" fill="black"/>
<path d="M25.9491 24.3849C25.8727 24.7569 25.8068 25.1082 25.726 25.4563C25.6833 25.6388 25.5862 25.8119 25.5618 25.9952C25.5236 26.2816 25.2814 26.3234 25.081 26.4125C24.5255 26.6595 23.9517 26.8712 23.4088 27.1409C22.5676 27.559 21.7723 28.0599 21.0652 28.6625C20.4085 29.2224 19.8018 29.8386 19.1951 30.4501C18.5843 31.066 18.102 31.7799 17.6627 32.5133C17.3477 33.0389 17.0763 33.5926 16.8337 34.1529C16.7154 34.4252 16.4699 34.4452 16.2655 34.5272C15.8299 34.7023 15.3735 34.8312 14.9257 34.9778C14.883 34.9918 14.8371 35.0036 14.7924 35.0055C14.5888 35.0137 14.5592 34.9836 14.6323 34.8027C14.8794 34.1908 15.122 33.5765 15.3894 32.9728C15.7673 32.1202 16.2574 31.3254 16.8231 30.5763C17.1665 30.1219 17.5249 29.6765 17.9012 29.2466C18.2462 28.8527 18.6038 28.4655 18.9919 28.1115C19.7291 27.439 20.5061 26.8068 21.3834 26.307C22.0779 25.9116 22.7854 25.5349 23.5047 25.1832C23.8835 24.998 24.298 24.878 24.7003 24.7397C25.0542 24.6182 25.4135 24.5115 25.7715 24.4009C25.8133 24.388 25.8605 24.3915 25.9499 24.3837L25.9491 24.3849Z" fill="black"/>
<path d="M14.2309 28.3271C13.8765 28.855 13.5311 29.3692 13.1808 29.8909C10.7547 26.6879 7.57728 24.5247 3.58911 23.4724V21.7164C7.95318 22.7304 11.4639 24.9752 14.2309 28.3271Z" fill="black"/>
<path d="M3.58869 24.3779C4.47215 24.6033 5.30766 24.8933 6.11553 25.2527C7.38952 25.8197 8.57085 26.534 9.64572 27.4007C10.7185 28.265 11.6788 29.2318 12.4948 30.3333C12.6992 30.6096 12.6988 30.7897 12.5472 31.0652C12.2863 31.5403 12.071 32.0385 11.8345 32.5301C11.6813 32.2964 11.5297 32.0424 11.3549 31.8041C11.064 31.4067 10.7823 30.9991 10.4532 30.6322C9.99317 30.1196 9.50999 29.6233 9.00446 29.1521C8.63831 28.8109 8.23234 28.5061 7.82231 28.2127C7.012 27.632 6.13666 27.151 5.22435 26.7349C4.92851 26.6001 4.62576 26.4617 4.31001 26.3879C4.00075 26.3156 3.9142 26.0835 3.83495 25.8701C3.66062 25.3997 3.5509 24.9105 3.58747 24.3771L3.58869 24.3779Z" fill="black"/>
<path d="M11.7938 24.7408C11.574 24.5817 11.3951 24.4477 11.2123 24.3199C10.7222 23.978 10.2382 23.6271 9.73592 23.302C9.39619 23.0824 9.02679 22.9058 8.67853 22.6979C8.61473 22.66 8.55133 22.5647 8.55052 22.4951C8.53955 21.6503 8.49525 20.8028 8.55255 19.9619C8.59725 19.3058 8.89513 18.7185 9.53151 18.3809C9.99762 18.1336 10.4556 18.1598 10.9006 18.4477C11.4159 18.7814 11.6873 19.2695 11.7446 19.8619C11.7727 20.1502 11.791 20.4402 11.7918 20.7297C11.7966 22.0489 11.7938 23.3681 11.7938 24.7404V24.7408Z" fill="black"/>
<path d="M17.8793 24.5998C17.8793 23.0032 17.8545 21.4437 17.8911 19.8861C17.9065 19.2297 18.4409 18.4665 19.0854 18.286C19.5413 18.1582 19.9457 18.2321 20.3135 18.5095C20.7857 18.8655 21.0596 19.3363 21.0827 19.91C21.1169 20.752 21.1169 21.5953 21.1238 22.4381C21.1238 22.4846 21.0669 22.5507 21.0185 22.5753C20.1375 23.0239 19.3113 23.5549 18.5087 24.1211C18.3011 24.2676 18.1044 24.4286 17.8789 24.6005L17.8793 24.5998Z" fill="black"/>
<path d="M24.9311 27.4041C23.4425 30.4383 20.9425 32.4491 17.8232 33.8973C19.3776 30.867 21.7431 28.7214 24.9311 27.4041Z" fill="black"/>
<path d="M4.58065 27.422C4.68672 27.4631 4.79522 27.4998 4.89925 27.5451C5.84367 27.9573 6.74176 28.4505 7.56264 29.0585C9.17066 30.2495 10.4674 31.7015 11.4183 33.4306C11.4451 33.4794 11.4618 33.5412 11.4594 33.5955C11.4537 33.7233 11.4049 33.7917 11.255 33.7147C10.4617 33.3071 9.69042 32.8699 8.94919 32.3748C8.08198 31.7961 7.32084 31.1103 6.60318 30.3804C5.95298 29.7189 5.39991 28.9776 4.94436 28.175C4.81025 27.9386 4.67778 27.701 4.54489 27.4642C4.55708 27.4502 4.56887 27.4357 4.58106 27.4216L4.58065 27.422Z" fill="black"/>
</svg>
