<svg width="2676" height="245" viewBox="0 0 2676 245" fill="none" xmlns="http://www.w3.org/2000/svg">
<rect x="0.89209" width="2674.27" height="245" fill="#FAF1E6"/>
<mask id="mask0_0_5" style="mask-type:luminance" maskUnits="userSpaceOnUse" x="0" y="0" width="2676" height="245">
<rect x="0.89209" width="2674.27" height="245" fill="white"/>
</mask>
<g mask="url(#mask0_0_5)">
</g>
<path d="M710.229 212.522C710.229 213.872 709.043 214.933 707.498 214.933C705.954 214.933 704.753 213.872 704.753 212.522C704.753 211.173 705.975 210.137 707.498 210.137C709.022 210.137 710.229 211.198 710.229 212.522ZM705.434 212.522C705.434 213.583 706.312 214.424 707.512 214.424C708.713 214.424 709.541 213.583 709.541 212.535C709.541 211.487 708.678 210.614 707.491 210.614C706.305 210.614 705.427 211.474 705.427 212.516L705.434 212.522ZM707.077 213.771H706.459V211.386C706.705 211.342 707.042 211.311 707.484 211.311C707.99 211.311 708.214 211.386 708.411 211.487C708.558 211.587 708.671 211.775 708.671 212.008C708.671 212.271 708.446 212.472 708.116 212.56V212.591C708.376 212.679 708.523 212.855 708.6 213.175C708.685 213.539 708.734 213.684 708.797 213.771H708.13C708.046 213.684 707.997 213.464 707.919 213.188C707.87 212.924 707.709 212.811 707.365 212.811H707.07V213.771H707.077ZM707.091 212.422H707.386C707.73 212.422 708.004 212.321 708.004 212.07C708.004 211.851 707.828 211.706 707.435 211.706C707.274 211.706 707.161 211.719 707.091 211.738V212.422Z" fill="white"/>
</svg>
