<svg width="97" height="85" viewBox="0 0 97 85" fill="none" xmlns="http://www.w3.org/2000/svg">
<path d="M43.7563 67.4596C44.009 66.5778 44.1683 66.151 44.6133 65.14C44.0969 64.6626 43.2234 63.8763 42.5532 63.4551C42.0588 64.7356 41.9929 65.2692 41.7402 66.1566C42.2511 66.4206 43.207 67.0103 43.7618 67.4596H43.7563Z" fill="#009FBC"/>
<path d="M55.6224 65.8983C53.6887 59.6528 50.3046 55.4572 50.3046 55.4572C50.3046 55.4572 62.4729 37.1531 48.4973 0C38.2628 33.581 41.2732 48.3243 46.6404 55.7212C46.6404 55.7212 45.289 57.7038 44.5749 59.3158C45.1407 59.8381 45.9922 60.748 46.4976 61.2816C47.2173 60.1021 47.9369 59.0406 48.5797 57.9734C48.5797 57.9734 51.5517 61.2422 53.5678 67.1957C53.5678 67.1957 54.1117 66.752 54.5731 66.4712C55.0346 66.1904 55.6169 65.9039 55.6169 65.9039L55.6224 65.8983ZM48.4808 2.50496C48.8049 2.99921 58.8966 36.378 48.3819 53.0365C39.1472 40.4556 46.4646 12.2327 48.4808 2.50496Z" fill="#009FBC"/>
<path d="M40.8392 69.9309C40.8063 74.9464 41.8171 79.3329 47.5853 83.388C47.7282 83.506 47.9259 83.4161 47.7666 83.1353C46.6569 81.3212 45.8054 78.5859 46.2504 74.8847C45.9647 74.3792 45.3275 73.5311 44.9649 73.0818C44.3276 77.4458 45.2396 80.1192 46.9151 82.5006C43.2124 79.0409 42.3774 76.0417 42.6961 71.0542C42.6961 71.0542 42.2181 70.6779 41.861 70.4757C41.504 70.2735 40.8392 69.9253 40.8392 69.9253V69.9309Z" fill="#009FBC"/>
<path d="M56.2047 69.9084C56.2377 74.924 55.2269 79.3105 49.4586 83.3656C49.3158 83.4779 49.1235 83.388 49.2773 83.1128C50.387 81.2987 51.2385 78.5578 50.7936 74.8622C51.0792 74.3567 51.711 73.5086 52.0791 73.0593C52.7163 77.4289 51.8044 80.0968 50.1288 82.4838C53.8315 79.024 54.6665 76.0248 54.3479 71.0317C54.3479 71.0317 54.8258 70.6554 55.1829 70.4533C55.54 70.2511 56.2102 69.9028 56.2102 69.9028L56.2047 69.9084Z" fill="#009FBC"/>
<path d="M49.8432 71.3013C50.0959 70.8632 50.6013 70.0994 50.9309 69.7231C50.6013 68.9143 50.5738 68.6335 50.1234 67.8416C49.7937 68.274 49.162 69.0603 48.8873 69.504C49.3378 70.2398 49.53 70.5319 49.8432 71.2957V71.3013Z" fill="#009FBC"/>
<path d="M57.8473 68.3414C57.7704 67.5494 57.655 66.7294 57.5122 65.8813C53.9853 67.409 51.4198 69.5826 49.8761 72.4021C49.1785 73.6658 48.739 74.9688 48.4863 76.2325C48.2281 74.9688 47.7886 73.6658 47.0909 72.3965C45.5417 69.5826 42.9817 67.409 39.4549 65.8813C39.3065 66.7294 39.1967 67.5494 39.1198 68.3414C49.4971 71.8292 48.3379 82.45 48.3325 83.0004C48.2995 83.1914 48.6676 83.2195 48.6291 82.9555C48.6291 82.4388 47.2118 72.2617 57.8473 68.3414Z" fill="#009FBC"/>
<path d="M51.7604 64.8257C51.4693 64.1966 51.0298 63.3429 50.6782 62.7195C48.4588 65.0896 47.1349 67.1509 46.1076 69.6671C46.7173 70.2512 47.1513 70.8409 47.3546 71.3015C48.0688 69.6671 49.1125 67.5441 51.7604 64.8201V64.8257Z" fill="#009FBC"/>
<path d="M48.0193 84.4721C47.6897 84.371 46.4756 83.8992 46.2998 83.8262C33.5383 78.3332 39.0813 62.798 40.0591 60.3773C44.7561 63.7191 46.4591 66.1455 46.8437 66.5386C46.9481 66.3139 47.6897 65.0559 47.9809 64.7132C45.2945 60.7424 41.1524 57.7263 41.1524 57.7263C41.1524 57.7263 48.7719 42.9774 17.0466 12.9797C17.1235 17.8155 19.4143 48.7399 37.5046 58.7429C37.1915 60.0459 29.3961 77.5076 46.0142 84.2811C29.7642 83.1859 33.2416 67.2294 33.3735 66.6734C33.5053 66.6903 34.3623 66.8924 34.6864 66.9711C34.7688 66.1118 34.9556 65.2019 35.1094 64.3987C34.7743 64.3089 34.4282 64.2021 34.0272 64.0505C34.2799 62.0623 37.1915 53.7723 0.5 42.2697C1.93931 45.9429 9.08094 60.8266 30.2202 65.8759C28.6985 71.2789 29.2039 84.9944 47.9534 84.9944C48.2336 84.9944 48.3544 84.5732 48.0138 84.4665L48.0193 84.4721ZM17.9585 15.0017C21.5788 17.8717 44.2947 42.5562 38.4276 55.6932C20.4856 44.3815 18.5409 17.2314 17.9585 15.0017ZM2.17554 43.8143C27.6767 51.9975 30.7421 58.9226 30.786 63.2305C13.9592 58.625 5.56506 51.3628 2.17554 43.8143Z" fill="#009FBC"/>
<path d="M55.0071 61.9499C55.6279 61.4501 56.3201 60.9221 57.0837 60.3773C58.0616 62.798 63.6046 78.3389 50.8485 83.8262C50.6782 83.8992 49.4586 84.3654 49.129 84.4721C48.7939 84.5788 48.9148 85 49.1949 85C67.9445 85 68.4554 71.2845 66.9282 65.8815C88.0729 60.8323 95.0607 45.971 96.5 42.2922C59.803 53.7948 62.8684 62.0623 63.1211 64.0561C62.7201 64.2078 62.374 64.3145 62.0389 64.4043C62.1872 65.2075 62.3795 66.1118 62.4619 66.9767C62.7805 66.8981 63.6375 66.6959 63.7749 66.679C63.9067 67.2351 67.3896 83.1915 51.1342 84.2867C67.7522 77.5132 59.9568 60.0516 59.6437 58.7485C77.7395 48.7456 79.8985 17.8212 79.9754 12.991C48.2446 42.9887 55.996 57.7319 55.996 57.7319C55.996 57.7319 55.15 58.3891 53.9194 59.4899C53.9194 59.4899 54.5127 60.5627 54.5622 60.7255C54.6171 60.8828 55.0071 61.9556 55.0071 61.9556V61.9499ZM58.7208 55.6932C52.8482 42.5562 75.5695 17.8717 79.1898 15.0017C78.6075 17.2314 76.6628 44.3815 58.7208 55.6932ZM66.3623 63.2305C66.4063 58.9226 69.4717 51.9975 94.9783 43.8143C91.5888 51.3628 83.1946 58.625 66.3623 63.2305Z" fill="#009FBC"/>
</svg>
