<svg width="90" height="81" viewBox="0 0 90 81" fill="none" xmlns="http://www.w3.org/2000/svg">
<path d="M18.9113 12.2075C18.9977 12.2075 19.0894 12.2184 19.1758 12.2293C19.6833 12.2947 20.1907 12.3492 20.709 12.3437C21.4432 12.3383 22.1828 12.3437 22.917 12.3437C23.0412 12.3437 23.1654 12.3437 23.2841 12.3546C24.0399 12.4363 24.7957 12.4799 25.557 12.4799C26.5827 12.4744 27.6084 12.4744 28.6342 12.4799C29.174 12.4799 29.6977 12.4309 30.2321 12.3655C30.8476 12.2892 31.2903 12.0496 31.4846 11.434C31.4954 11.4013 31.517 11.3795 31.5332 11.3469C31.7815 10.8784 31.6358 10.5897 31.1175 10.5243C31.0635 10.5189 31.0041 10.5189 30.9501 10.5189C28.6881 10.5189 26.4207 10.5516 24.1587 10.4426C23.5001 10.4426 22.8415 10.4426 22.1828 10.4426C19.6995 10.459 17.2107 10.3827 14.7274 10.6551C13.8204 10.7531 12.9134 10.873 12.0011 10.9438C11.5908 10.9765 11.2993 11.2161 11.1157 11.5811C10.9376 11.9406 11.0887 12.1476 11.4882 12.1149C12.3898 12.0441 13.2913 12.055 14.1983 12.0931C15.7693 12.1531 17.3349 12.2783 18.9059 12.2075H18.9113Z" fill="#D41367"/>
<path d="M80.1368 9.76166C80.0072 9.75621 79.8722 9.75077 79.7373 9.76166C78.6143 9.84882 77.4914 9.90329 76.3631 9.89784C75.7315 9.89784 75.0945 9.89784 74.4574 9.96321C73.7934 10.034 73.124 10.0885 72.4546 10.0994C70.9052 10.1212 69.3558 10.1212 67.801 10.1212C67.4231 10.1212 67.0398 10.1212 66.6727 10.0286C66.1544 9.90329 65.6361 9.90329 65.1071 9.91418C63.7574 9.94687 62.4132 10.0395 61.0635 10.0395C60.8638 10.0395 60.6694 10.0939 60.4697 10.1266C59.8596 10.2192 59.5951 10.6605 59.4277 11.1888C59.3522 11.4285 59.4655 11.581 59.7247 11.5865C59.9082 11.5919 60.0756 11.6301 60.2483 11.6736C60.5345 11.7444 60.8206 11.7336 61.1121 11.6954C61.2093 11.6845 61.3119 11.6627 61.409 11.6627C63.7844 11.6627 66.1598 11.6083 68.5946 11.6518C68.7997 11.6627 69.0696 11.6791 69.3342 11.6845C70.3599 11.7118 71.3856 11.7717 72.4114 11.7499C73.4263 11.7281 74.4412 11.7227 75.4562 11.6954C76.0122 11.6791 76.5737 11.6736 77.1243 11.6028C77.8747 11.5048 78.6144 11.325 79.3702 11.2596C79.6293 11.2379 79.829 11.118 80.0126 10.9437C80.2825 10.6931 80.3095 10.35 80.3689 10.0231C80.3959 9.87605 80.2825 9.77256 80.126 9.76166H80.1368Z" fill="#D41367"/>
<path d="M17.6318 17.6328C18.2904 17.6655 18.9437 17.7308 19.6023 17.7472C20.709 17.7799 21.8103 17.6709 22.9116 17.6546C23.3435 17.6491 23.7808 17.6709 24.2181 17.6437C25.0981 17.5892 25.9726 17.5238 26.858 17.5402C27.2467 17.5511 27.6354 17.5456 28.0241 17.4748C28.429 17.404 28.8393 17.3713 29.255 17.3768C29.7894 17.3822 30.2537 16.9737 30.3023 16.4344C30.3563 15.8025 30.1134 15.5846 29.5681 15.6663C29.5573 15.6663 29.5465 15.6663 29.5357 15.6663C28.8285 15.7644 28.1213 15.8406 27.4087 15.8679C26.5827 15.8951 25.7621 15.9877 24.9415 16.0476C23.7376 16.1402 22.5337 16.0476 21.7563 16.0967C19.5051 16.162 17.675 16.2111 15.8503 16.2655C15.7531 16.2655 15.6505 16.2819 15.5534 16.2928C14.7436 16.3799 13.9392 16.478 13.1348 16.6033C12.7623 16.6577 12.3628 17.0009 12.2872 17.3659C12.2386 17.5783 12.3304 17.709 12.5355 17.7581C12.6273 17.7799 12.7137 17.7635 12.8001 17.7472C13.6315 17.5892 14.4574 17.4585 15.3104 17.5293C16.0878 17.5892 16.8706 17.5892 17.648 17.6219L17.6318 17.6328Z" fill="#D41367"/>
<path d="M17.9827 23.0147C19.0732 23.031 20.1692 22.9602 21.2597 23.0746C22.2692 23.1781 23.2895 23.14 24.3585 23.1454C25.4382 23.1345 26.5773 23.1618 27.711 23.0746C27.9863 23.0528 28.2671 23.0419 28.5154 22.8894C28.9905 22.6061 29.2118 22.1921 29.1686 21.6256C29.147 21.3696 29.0876 21.2607 28.8339 21.277C28.1861 21.3151 27.5436 21.228 26.8958 21.2117C25.4814 21.1844 24.0669 21.2879 22.6471 21.2552C22.4798 21.2552 22.3124 21.2498 22.145 21.2552C21.2867 21.2879 20.4283 21.2934 19.5753 21.3805C18.6791 21.4731 17.7776 21.5766 16.876 21.6039C16.0824 21.6202 15.305 21.7782 14.5114 21.7782C14.1497 21.7782 13.7448 22.1758 13.6692 22.5408C13.6423 22.6878 13.68 22.8077 13.8096 22.8839C13.9176 22.9493 14.0256 22.9983 14.1551 22.9929C14.3765 22.9711 14.5978 22.982 14.8191 22.9548C15.0945 22.9221 15.3806 22.8622 15.6505 22.9439C15.9151 23.0201 16.1742 23.0365 16.4387 23.0474C16.9516 23.0692 17.4645 23.0038 17.9773 23.0147H17.9827Z" fill="#D41367"/>
<path d="M74.5978 15.2359C74.3225 15.2686 74.0417 15.2959 73.7664 15.3068C72.3412 15.3449 70.9106 15.2959 69.4853 15.2251C68.2275 15.1651 66.9642 15.1869 65.7063 15.176C65.5821 15.176 65.458 15.176 65.3392 15.2033C64.4484 15.3667 63.5415 15.3122 62.6399 15.3994C62.4294 15.3994 62.2188 15.3939 62.0029 15.3994C61.3658 15.4157 60.8908 15.9223 60.9124 16.5596C60.9286 16.9627 61.1823 17.2296 61.5818 17.2078C62.2728 17.1697 62.9584 17.0989 63.6494 17.1152C63.6926 17.1152 63.7358 17.1043 63.779 17.0989C64.3567 17.0444 64.9343 16.9791 65.512 16.9518C66.5485 16.8919 67.585 16.8647 68.6162 16.7938C70.1062 16.7012 71.5962 16.5705 73.0862 16.4834C74.2631 16.4125 75.4454 16.3744 76.6277 16.3417C77.0973 16.3308 77.4051 16.0966 77.5994 15.6935C77.756 15.3721 77.6372 15.1815 77.2971 15.1869C76.3955 15.2033 75.4886 15.1324 74.5924 15.2468L74.5978 15.2359Z" fill="#D41367"/>
<path d="M75.9744 20.6779C75.8665 20.6615 75.7531 20.6724 75.6397 20.6724C75.3806 20.6724 75.1323 20.6506 74.8731 20.607C74.2469 20.5144 73.6261 20.3783 72.9836 20.3837C71.5098 20.4 70.036 20.4218 68.5676 20.46C68.0979 20.4709 67.6336 20.5035 67.1639 20.5308C66.0842 20.6016 65.0099 20.7596 63.9248 20.7051C63.4821 20.6833 63.061 20.7922 62.6453 20.923C62.0893 21.0973 61.7977 21.7128 61.9813 22.2739C62.0137 22.3828 62.0677 22.4809 62.1702 22.4863C62.4618 22.5081 62.7155 22.6606 63.0124 22.6661C63.5739 22.6715 64.1245 22.6062 64.6806 22.5571C64.9937 22.5299 65.3014 22.5354 65.6145 22.4809C66.7482 22.2848 67.8873 22.1649 69.0426 22.1922C69.1884 22.1922 69.3342 22.1922 69.4745 22.1649C70.0954 22.0669 70.7162 22.0451 71.3424 22.056C71.7203 22.0614 72.1036 22.056 72.4815 22.056C73.1078 22.056 73.734 22.056 74.3549 22.056C74.614 22.056 74.8677 22.0288 75.1215 21.9852C75.494 21.9144 75.8233 21.7727 76.0662 21.4623C76.158 21.3479 76.2336 21.2226 76.2552 21.0755C76.293 20.8358 76.212 20.7105 75.969 20.6724L75.9744 20.6779Z" fill="#D41367"/>
<path d="M74.3117 36.2188C74.1227 36.1915 73.9338 36.1861 73.7448 36.1861C72.8972 36.1861 72.0497 36.2024 71.2021 36.2024C69.5285 36.2024 67.8549 36.1915 66.1814 36.1806C65.8683 36.1806 65.5551 36.1643 65.2528 36.0826C64.8101 35.9627 64.4214 36.1098 64.0273 36.2732C63.8762 36.3386 63.752 36.4639 63.6602 36.6055C63.5307 36.8016 63.4389 36.9977 63.5631 37.2319C63.5901 37.2755 63.5847 37.3354 63.5955 37.3899C63.6656 37.7167 63.7898 37.8093 64.1083 37.7549C64.3728 37.7058 64.6428 37.6841 64.9073 37.744C65.1826 37.8039 65.458 37.8094 65.7387 37.8094C65.906 37.8094 66.0734 37.7985 66.2408 37.8202C67.0505 37.9292 67.8603 37.9564 68.6755 37.9346C69.2532 37.9183 69.8362 37.9564 70.4139 37.9074C71.4018 37.8202 72.3844 37.6732 73.3777 37.6677C73.7934 37.6677 74.5006 37.0304 74.5762 36.6219C74.6194 36.3767 74.5492 36.2514 74.3063 36.2188H74.3117Z" fill="#D41367"/>
<path d="M20.1422 27.8355C20.6064 27.8192 21.0815 27.8355 21.5458 27.7538C21.6106 27.7429 21.6862 27.7429 21.7401 27.7702C21.9129 27.8464 22.091 27.8246 22.2692 27.8246C23.0358 27.7103 23.8024 27.7593 24.5744 27.7429C24.7957 27.7429 25.0171 27.7212 25.2384 27.6939C25.9996 27.6068 26.7608 27.4815 27.5328 27.5196C27.8945 27.5359 28.1753 27.378 28.4128 27.1111C28.6018 26.9041 28.6827 26.6753 28.5694 26.4029C28.456 26.1306 28.2131 26.0815 27.9647 26.0706C27.0578 26.0325 26.167 26.1578 25.2762 26.2994C24.9469 26.3539 24.6122 26.4574 24.2883 26.4356C23.6404 26.4029 22.9926 26.392 22.3502 26.4193C21.0491 26.4737 19.7427 26.5337 18.4416 26.5446C17.9071 26.5446 17.3781 26.6481 16.8814 26.8605C16.4927 27.0294 16.212 27.3072 16.0932 27.7212C16.0338 27.9336 16.104 28.0371 16.3199 28.0861C16.4819 28.1242 16.6493 28.1188 16.8166 28.097C17.1351 28.0643 17.4591 28.0153 17.7776 28.0099C18.5712 27.9881 19.3486 27.8464 20.1422 27.8246V27.8355Z" fill="#D41367"/>
<path d="M72.7785 25.722C72.5355 25.722 72.2872 25.7383 72.0443 25.7656C71.0941 25.8745 70.1386 25.9562 69.1776 25.9235C68.8537 25.9126 68.5298 25.9235 68.2059 25.9617C66.8994 26.1305 65.5983 26.3048 64.2757 26.2722C64.1083 26.2722 63.9464 26.3103 63.779 26.2667C63.5577 26.2013 63.3633 26.2776 63.1852 26.4138C62.9638 26.5826 62.8073 26.7951 62.6885 27.0457C62.5103 27.4161 62.6021 27.8682 63.169 27.7483C63.7574 27.6231 64.3621 27.6231 64.9559 27.5359C65.9654 27.3834 66.9804 27.3834 67.9953 27.3398C68.7835 27.3126 69.5771 27.3071 70.3707 27.2908C71.3424 27.2744 72.3088 27.2309 73.2751 27.1274C73.6045 27.0947 73.9392 27.0565 74.2577 26.9422C74.6194 26.806 74.9055 26.5826 75.0837 26.2395C75.2618 25.8908 75.1377 25.7002 74.7544 25.7002C74.0957 25.7002 73.4371 25.7111 72.7785 25.722Z" fill="#D41367"/>
<path d="M28.9149 69.2943C29.5843 69.3487 30.2483 69.3869 30.9178 69.4468C31.8139 69.5339 32.7155 69.6047 33.6171 69.6265C34.2973 69.6483 34.9721 69.5285 35.6523 69.4958C35.8737 69.4849 36.0896 69.3923 36.2786 69.2779C36.6133 69.0818 36.8346 68.7986 36.894 68.4064C36.9318 68.1503 36.8346 68.0359 36.5809 68.0632C35.7333 68.1667 34.8911 68.0142 34.0435 67.976C33.142 67.9379 32.2458 67.7745 31.5602 67.8126C30.8638 67.8235 30.3833 67.8235 29.9028 67.8562C29.5033 67.8834 29.1038 67.9542 28.7043 67.9542C27.9215 67.9597 27.1441 67.9869 26.3667 68.0577C26.0212 68.0904 25.7783 68.2429 25.5839 68.5044C25.4652 68.6678 25.3518 68.853 25.4652 69.0655C25.5677 69.267 25.7675 69.2071 25.9403 69.2234C26.7069 69.2616 27.4735 69.0655 28.2401 69.218C28.456 69.2616 28.6827 69.2725 28.9041 69.2888L28.9149 69.2943Z" fill="#D41367"/>
<path d="M38.0655 72.9656C37.0398 72.9329 36.014 72.9166 34.7184 72.8839C33.7196 72.9111 32.451 72.824 31.1823 72.9275C30.4859 72.9819 29.784 73.0037 29.0876 73.1344C28.7151 73.1998 28.4614 73.4123 28.294 73.7336C28.1159 74.0823 28.2401 74.311 28.6234 74.3383C29.1308 74.3764 29.6491 74.4254 30.1566 74.42C31.0581 74.4145 31.9597 74.4145 32.8612 74.3819C34.2217 74.3383 35.5821 74.2511 36.9426 74.2947C37.0991 74.2947 37.2557 74.3056 37.4123 74.2947C37.855 74.262 38.303 74.2293 38.7403 74.1803C39.1776 74.1258 39.4745 73.8644 39.6311 73.4613C39.7445 73.178 39.6311 73.0146 39.3396 73.0146C38.9131 73.0146 38.492 72.9874 38.0709 72.971L38.0655 72.9656Z" fill="#D41367"/>
<path d="M74.5222 31.2563C74.0201 31.2563 73.5181 31.2508 73.016 31.2835C72.379 31.3325 71.7473 31.3325 71.1103 31.2944C70.144 31.2399 69.1776 31.1745 68.2059 31.1909C67.7956 31.1963 67.3799 31.1963 66.9696 31.1637C66.2786 31.1092 65.5929 31.0275 64.9019 31.0493C64.5996 31.0547 64.2973 31.0656 64.0004 31.0493C63.7412 31.0329 63.5415 31.1255 63.3633 31.2889C63.0448 31.5667 62.9962 31.9971 62.7965 32.3403C62.7965 32.3511 62.7965 32.362 62.7965 32.3729C62.7803 32.5745 62.8559 32.6943 63.0502 32.6834C63.7412 32.6507 64.4322 32.7161 65.1179 32.6072C65.5606 32.5309 65.9978 32.4928 66.4459 32.4655C67.558 32.4002 68.6755 32.4492 69.4637 32.4329C71.0509 32.5037 72.3088 32.4819 73.5667 32.4655C73.734 32.4655 73.9014 32.4438 74.0633 32.4056C74.4358 32.313 74.6896 32.0733 74.8299 31.7138C74.9325 31.4469 74.8137 31.2672 74.5276 31.2672L74.5222 31.2563Z" fill="#D41367"/>
<path d="M30.1781 65.3015H31.0473C31.7815 65.3015 32.5211 65.3015 33.2553 65.3015C33.671 65.3015 33.9464 65.0672 34.1299 64.7241C34.389 64.2447 34.0975 63.749 33.5631 63.749C32.2674 63.7545 30.9771 63.7654 29.6815 63.7708C29.0498 63.7708 28.4128 63.8144 27.7812 63.8144C27.1225 63.8144 26.4693 63.858 25.8107 63.8307C25.6433 63.8307 25.4976 63.8634 25.368 63.956C25.1143 64.1303 24.9037 64.3428 24.7526 64.6097C24.5474 64.9746 24.6716 65.2089 25.0765 65.2252C25.8053 65.2525 26.5395 65.2525 27.2683 65.2906C28.2346 65.3451 29.2064 65.2579 30.1781 65.296V65.3015Z" fill="#D41367"/>
<path d="M21.9291 48.3878C22.6147 48.4314 23.3111 48.3932 24.0021 48.3932V48.4041H25.0711C25.4274 48.4041 25.7837 48.3932 26.14 48.4205C26.8526 48.4749 27.2683 47.9466 27.4087 47.3692C27.4572 47.1622 27.3925 47.0151 27.2143 46.8789C26.9552 46.6774 26.6852 46.612 26.3721 46.6937C26.2858 46.7155 26.1994 46.7209 26.1076 46.7264C25.4868 46.7482 24.8605 46.77 24.2397 46.7918C24.0507 46.7918 23.8618 46.7809 23.6728 46.7482C23.1654 46.661 22.6525 46.6665 22.1396 46.71C21.4108 46.7754 20.682 46.8953 19.9424 46.8626C19.6725 46.8517 19.4457 46.9606 19.2352 47.1131C19.0192 47.2711 18.8897 47.489 18.7655 47.7178C18.5226 48.1862 18.6413 48.3769 19.1542 48.3987C20.0774 48.4314 21.0005 48.3279 21.9237 48.3823L21.9291 48.3878Z" fill="#D41367"/>
<path d="M23.4731 32.9886C23.9428 32.9995 24.407 32.9941 24.8767 32.9777C25.6217 32.9505 26.3667 32.8633 27.1117 32.8797C27.5814 32.8906 28.0565 32.542 28.2184 32.1007C28.3642 31.7031 28.0943 31.3218 27.6732 31.3218C27.4033 31.3218 27.1387 31.3654 26.8796 31.4198C26.5881 31.4852 26.2912 31.5397 25.9888 31.556C25.2978 31.5941 24.6122 31.6323 23.9212 31.6976C22.5445 31.8229 21.1733 32.0027 19.9154 31.9264H18.1447C17.7398 31.9264 17.3079 32.2805 17.2323 32.6836C17.1891 32.9178 17.2809 33.0485 17.5184 33.0758C17.5724 33.0812 17.6318 33.0758 17.6858 33.0758C18.9922 33.0758 20.2933 33.0758 21.5998 33.0758C22.2206 33.0758 22.8414 32.9777 23.4677 32.9886H23.4731Z" fill="#D41367"/>
<path d="M25.0279 56.3406C25.5623 56.346 26.0968 56.3951 26.7608 56.4277C27.4195 56.4277 28.2077 56.4986 29.0013 56.3951C29.4115 56.346 29.8758 55.883 29.9676 55.5181C30.0324 55.2784 29.946 55.1422 29.7085 55.115C29.5897 55.1041 29.4979 55.0877 29.4277 54.9788C29.3738 54.8971 29.2766 54.8971 29.1902 54.8807C28.9797 54.8372 28.7691 54.8317 28.5586 54.8317C27.8891 54.8317 27.2197 54.8426 26.5557 54.8317C25.8323 54.8154 25.1089 54.8862 24.3908 54.9624C23.6081 55.0496 22.8199 55.1259 22.0263 55.1095C21.9615 55.1095 21.8913 55.1095 21.8265 55.1095C21.427 55.1531 21.0059 55.5126 20.9088 55.8939C20.8602 56.0791 20.9088 56.2643 21.0545 56.2861C21.2651 56.3188 21.4486 56.4495 21.6646 56.4495C22.3664 56.4495 23.0682 56.4495 23.77 56.406C24.1911 56.3733 24.6122 56.3351 25.0387 56.3406H25.0279Z" fill="#D41367"/>
<path d="M19.4349 38.0817C19.6347 38.0763 19.856 38.0163 19.9964 38.256C20.0342 38.3268 20.1584 38.3268 20.2447 38.3214C21.1247 38.2996 22.0047 38.4194 22.8792 38.2833C23.4677 38.1907 24.0561 38.1852 24.6446 38.1907C24.8227 38.1907 25.0009 38.1961 25.179 38.1907C25.6163 38.1743 26.0428 38.1089 26.4315 37.8802C26.7824 37.6786 26.993 37.3845 27.0578 36.9759C27.101 36.7145 26.9984 36.5837 26.7392 36.5946C26.194 36.6219 25.6487 36.6382 25.1089 36.709C24.3477 36.8071 23.5865 36.8888 22.8145 36.8561C22.6903 36.8506 22.5715 36.8561 22.4474 36.8561C21.9129 36.8561 21.3784 36.7962 20.844 36.867C20.0936 36.965 19.3324 36.9432 18.582 37.0685C18.1663 37.1339 17.8909 37.3627 17.7236 37.7276C17.5832 38.0381 17.7236 38.2233 18.0691 38.2233C18.1447 38.2233 18.2257 38.2179 18.3012 38.2015C18.6737 38.1253 19.0516 38.1035 19.4295 38.0872L19.4349 38.0817Z" fill="#D41367"/>
<path d="M67.7578 58.7812C67.2827 58.8411 66.8076 58.9064 66.3271 58.9228C65.5713 58.95 64.8155 59.059 64.0597 59.0154C63.4497 58.9827 62.8343 58.9718 62.2242 58.9664C61.7815 58.9664 61.3334 58.9881 60.8908 58.9609C60.6046 58.9391 60.3941 59.0372 60.1943 59.2115C59.9514 59.4294 59.8812 59.7235 59.838 60.0286C59.8002 60.3064 59.892 60.4099 60.1673 60.3826C60.5021 60.3499 60.8368 60.3663 61.1715 60.3608C62.0515 60.3445 62.9314 60.3935 63.8114 60.3173C64.1191 60.2955 64.4322 60.3118 64.7454 60.3608C65.0531 60.4153 65.3554 60.497 65.6685 60.4752C66.3811 60.4208 67.0883 60.3499 67.801 60.3009C68.0007 60.2846 68.1087 60.1974 68.1573 60.0177C68.2005 59.8325 68.2275 59.6418 68.2868 59.4621C68.4704 58.9064 68.33 58.7158 67.7632 58.7866L67.7578 58.7812Z" fill="#D41367"/>
<path d="M27.9377 60.7365C28.5424 60.6275 29.1794 60.5949 29.7031 60.633C30.0378 60.633 30.2699 60.633 30.5075 60.633C30.7882 60.633 31.0635 60.5785 31.328 60.5023C31.6196 60.4205 31.8355 60.2299 31.9867 59.9684C32.0731 59.8214 32.1486 59.6634 32.0461 59.4945C31.9327 59.3148 31.7815 59.2058 31.5494 59.2276C30.4697 59.3311 29.39 59.2603 28.3102 59.342C27.4033 59.4183 26.4855 59.4564 25.5731 59.4346C25.1035 59.4237 24.6338 59.4455 24.1695 59.5C23.7592 59.5436 23.4623 59.7614 23.2787 60.1264C23.1114 60.4532 23.2463 60.7365 23.6081 60.7474C24.1209 60.7637 24.6284 60.8672 25.1413 60.8454C26.0698 60.8127 26.9984 60.8999 27.9323 60.7365H27.9377Z" fill="#D41367"/>
<path d="M20.4445 43.6486C20.9196 43.6922 21.4054 43.6867 21.8805 43.6541C22.8469 43.5887 23.8132 43.507 24.785 43.4961C25.1629 43.4906 25.5354 43.4198 25.9187 43.4035C26.086 43.4035 26.2372 43.3163 26.3775 43.2183C26.6043 43.0549 26.7339 42.8206 26.8526 42.5755C26.9282 42.4175 27.0146 42.2541 26.885 42.1016C26.7716 41.9654 26.5989 41.9327 26.4261 41.9709C26.2588 42.009 26.0914 41.9981 25.9241 42.0036C25.4112 42.0036 24.8983 42.0036 24.3855 42.0689C24.1209 42.1016 23.8564 42.1615 23.5865 42.1506C23.0412 42.1397 22.496 42.1942 21.9507 42.216C21.7078 42.2214 21.454 42.1942 21.2165 42.2487C20.7954 42.3467 20.3797 42.3576 19.9532 42.3522C19.7643 42.3522 19.5753 42.3522 19.3864 42.3522C18.9059 42.3467 18.5442 42.5755 18.366 43.0167C18.1447 43.5506 18.3714 43.6813 18.8033 43.6268C19.3486 43.556 19.8938 43.5996 20.4391 43.6432L20.4445 43.6486Z" fill="#D41367"/>
<path d="M61.328 72.9001C61.2741 72.8947 61.2201 72.8947 61.1607 72.9001C60.3239 72.9165 59.4925 72.9056 58.6557 72.813C57.8028 72.7149 56.939 72.7912 56.2426 72.7694C55.7189 72.7694 55.3464 72.7585 54.9793 72.7694C54.4772 72.7912 53.9752 72.7694 53.4785 72.8783C52.9872 72.9818 52.6849 73.3141 52.5445 73.7935C52.4582 74.093 52.6255 74.2728 52.9116 74.202C53.1006 74.153 53.2841 74.1584 53.4731 74.153C54.1209 74.153 54.7687 74.1802 55.4112 74.0822C55.8323 74.0168 56.2534 74.0222 56.6745 74.0222C56.966 74.0222 57.2521 74.0876 57.5382 74.0876C58.5856 74.0876 59.6329 74.0876 60.6802 74.0713C61.0797 74.0713 61.4792 73.7335 61.598 73.3522C61.679 73.0908 61.5872 72.9437 61.3118 72.9056L61.328 72.9001Z" fill="#D41367"/>
<path d="M25.2816 52.7074C25.8431 52.7564 26.4099 52.6747 26.9768 52.6638C27.4141 52.6584 27.7164 52.4568 27.9431 52.1028C28.0673 51.9121 28.0889 51.6997 27.9917 51.4927C27.8945 51.2857 27.7002 51.3238 27.522 51.3238C26.3613 51.3238 25.2006 51.3238 24.0399 51.3238C23.8078 51.3238 23.5757 51.3401 23.3381 51.3728C22.4312 51.4981 21.5188 51.5526 20.6064 51.4763C20.4769 51.4654 20.3635 51.5036 20.2555 51.558C19.8344 51.7759 19.6617 52.1191 19.7427 52.6039C19.7858 52.8599 19.8344 52.898 20.0936 52.8872C20.2285 52.8872 20.3581 52.8763 20.4931 52.8763C21.1193 52.8654 21.7401 52.8654 22.3664 52.8436C23.3327 52.8109 24.3045 52.7564 25.2816 52.7074Z" fill="#D41367"/>
<path d="M62.8829 67.6C62.6291 67.5946 62.37 67.5891 62.1162 67.6273C61.0905 67.7907 60.0648 67.8833 59.0229 67.8833C57.9809 67.8833 56.8418 67.7852 55.7513 67.8615C55.3572 67.8887 54.9469 68.2265 54.8713 68.6132C54.8281 68.8583 54.9253 69 55.1737 69.0327C55.2276 69.0436 55.2816 69.0327 55.341 69.0381C55.7837 69.0544 56.2318 69.0381 56.6745 69.0926C57.0308 69.1362 57.3817 69.1688 57.738 69.1688C58.1861 69.1688 58.6288 69.1688 59.0768 69.1688V69.1525C59.5897 69.1525 60.1026 69.1525 60.6154 69.1525C61.1607 69.1525 61.706 69.0871 62.235 68.951C62.7371 68.8257 63.0232 68.4716 63.1582 67.9813C63.223 67.7471 63.1204 67.6055 62.8829 67.6Z" fill="#D41367"/>
<path d="M63.5631 63.6781C62.3862 63.7216 61.2039 63.7325 60.0216 63.7489C59.6329 63.7543 59.2442 63.7598 58.8555 63.8251C58.6827 63.8524 58.51 63.9014 58.3318 63.8251C58.2455 63.787 58.1375 63.8142 58.0403 63.8578C57.63 64.0539 57.4087 64.3808 57.3601 64.8274C57.3385 65.0235 57.4195 65.1161 57.6192 65.1488C57.7056 65.1652 57.7974 65.1597 57.8837 65.1597H59.0552C59.6221 65.1706 60.1889 65.1924 60.7558 65.1216C61.2741 65.0562 61.7923 64.9745 62.316 64.9582C63.061 64.9309 63.806 64.8928 64.5456 64.7784C64.9505 64.7185 65.2204 64.5006 65.3986 64.1574C65.5821 63.8088 65.3986 63.5964 65.0639 63.6127C64.5618 63.6345 64.0651 63.6672 63.5631 63.6835V63.6781Z" fill="#D41367"/>
<path d="M72.0443 42.1125C71.0887 42.1071 70.1278 42.1125 69.1722 42.1125C68.357 42.1071 67.5472 42.0472 66.732 42.069C66.2516 42.0799 65.7711 42.1016 65.3014 42.1942C64.8965 42.2814 64.632 42.5429 64.524 42.9405C64.4592 43.1911 64.5834 43.3491 64.8209 43.3491C65.4418 43.3491 66.0626 43.3491 66.6781 43.3491C67.2449 43.3491 67.8172 43.3327 68.384 43.3327C69.4205 43.3382 70.4571 43.3491 71.4882 43.2837C71.8607 43.2619 72.1522 43.1148 72.3682 42.8152C72.487 42.6518 72.6111 42.4775 72.5139 42.2596C72.4168 42.0526 72.2116 42.1071 72.0389 42.1071L72.0443 42.1125Z" fill="#D41367"/>
<path d="M68.1465 51.5144C66.8886 51.5798 65.6307 51.5362 64.3729 51.5471C64.3189 51.5471 64.2595 51.5471 64.2055 51.5417C63.8384 51.4491 63.5847 51.6343 63.3687 51.8957C63.223 52.0755 63.0988 52.277 63.2014 52.5113C63.3039 52.751 63.5361 52.7401 63.7466 52.7401H66.4513C67.3529 52.7455 68.2545 52.7455 69.156 52.7455C69.6581 52.7455 70.0414 52.4459 70.1764 51.9502C70.3059 51.4654 70.2249 51.351 69.7391 51.3783C69.2046 51.4109 68.6755 51.4818 68.1411 51.5144H68.1465Z" fill="#D41367"/>
<path d="M68.1627 55.1695C67.7524 55.1641 67.3367 55.1695 66.9264 55.1478C65.6793 55.0987 64.4322 55.0497 63.1852 55.0933C62.7533 55.1096 62.3646 55.4038 62.2458 55.8178C62.1594 56.1228 62.2836 56.3135 62.5967 56.3026C63.4767 56.2808 64.3567 56.3952 65.2366 56.3788C66.1058 56.3788 66.975 56.3788 67.8441 56.3788C68.2868 56.3788 68.5838 56.1555 68.7889 55.796C68.994 55.4365 68.8699 55.224 68.4596 55.1804C68.3624 55.175 68.2598 55.175 68.1573 55.1695H68.1627Z" fill="#D41367"/>
<path d="M71.2669 47.1785C71.0779 47.1785 70.889 47.1839 70.7 47.1948C70.0306 47.2329 69.3666 47.1294 68.6971 47.124C67.693 47.1185 66.6943 47.222 65.6955 47.1839C65.3446 47.173 65.0963 47.3201 64.8965 47.5761C64.7616 47.745 64.6428 47.9411 64.7454 48.1644C64.8425 48.3768 65.0639 48.3333 65.2474 48.3387C65.9385 48.3551 66.6241 48.2897 67.3151 48.2733C68.1519 48.257 68.9833 48.2897 69.82 48.3278C70.063 48.3278 70.3113 48.3115 70.5543 48.3333C71.0293 48.3714 71.4612 48.1099 71.607 47.6578C71.7096 47.3528 71.5962 47.1785 71.2669 47.173V47.1785Z" fill="#D41367"/>
<path d="M41.6124 50.2072C41.1157 49.3846 40.3815 48.8889 39.4475 48.7146C39.0318 48.6384 38.6107 48.5894 38.1033 48.6002C37.2125 48.4695 36.4837 48.9107 35.9222 49.6407C35.5066 50.1854 35.2312 50.8227 35.1448 51.52C35.1179 51.7433 35.0693 51.9612 35.0315 52.1845C34.9613 52.6148 34.8965 53.0506 35.0153 53.4864C35.1664 54.0311 35.3716 54.554 35.6955 55.0171C36.6241 56.3625 37.8819 57.0216 39.5339 56.8473C39.5879 56.8419 39.6419 56.8255 39.6959 56.8037C40.8188 56.4333 41.6124 55.6653 42.109 54.6085C42.5085 53.7588 42.5085 52.8491 42.3466 51.9339C42.2386 51.2966 41.9417 50.7464 41.6178 50.2072H41.6124ZM37.2719 50.4033C37.4177 50.2998 37.477 50.2998 37.5688 50.4468C37.6444 50.5667 37.7038 50.7029 37.774 50.8282C37.8549 50.9861 37.9413 51.1441 38.0277 51.3021C38.0385 51.3783 38.0115 51.411 37.9305 51.4001C37.666 51.1931 37.4447 50.9425 37.2179 50.6974C37.0991 50.5612 37.1531 50.4904 37.2665 50.4087L37.2719 50.4033ZM40.808 54.7338C40.5704 55.0552 40.2519 55.2241 39.8794 55.2731C39.4637 55.3221 39.0426 55.3929 38.6161 55.3548C38.0115 55.3003 37.4662 55.1206 37.0614 54.6249C36.921 54.4505 36.8562 54.249 36.8238 54.042C36.732 53.4755 36.6673 52.909 36.6727 52.3316C36.6727 51.9612 36.6457 51.5908 36.7482 51.2258C36.7644 51.1713 36.7644 51.1169 36.8562 51.0624C37.0775 51.362 37.3475 51.6234 37.6444 51.8577C37.9197 52.0756 38.1141 52.2662 37.9737 52.6748C37.8819 52.9471 37.9845 53.2358 38.2544 53.4101C38.5352 53.5953 38.8483 53.6117 39.1452 53.4646C39.5231 53.274 39.7229 52.9471 39.7391 52.5168C39.7499 52.1845 39.5555 51.983 39.291 51.874C39.0534 51.776 38.9293 51.6126 38.8159 51.3947C38.6107 50.997 38.3192 50.6484 38.1303 50.2399C38.1087 50.1908 38.0655 50.1473 38.0763 50.0655C38.4488 49.9893 38.8159 50.0274 39.156 50.2017C39.5933 50.4305 39.9874 50.7301 40.3275 51.0896C40.8242 51.618 41.0239 52.2826 41.1049 52.9852C41.1373 53.2739 41.1211 53.5681 41.1157 53.8622C41.1103 54.1836 41.0023 54.4669 40.808 54.7338Z" fill="#D41367"/>
<path d="M48.5874 44.9887C48.8735 44.9778 49.1164 44.7382 49.111 44.4495C49.111 44.2098 48.9491 44.03 48.7331 44.03C48.4902 44.03 48.2419 44.3351 48.2419 44.651C48.2419 44.8907 48.3498 44.9942 48.5874 44.9887Z" fill="#D41367"/>
<path d="M47.6804 46.3341C47.8639 46.3341 48.0637 46.138 48.0637 45.9147C48.0637 45.8112 47.9989 45.7349 47.8693 45.724C47.6912 45.7131 47.4752 45.9256 47.486 46.1108C47.4914 46.2252 47.5292 46.3287 47.6804 46.3341Z" fill="#D41367"/>
<path d="M50.5471 42.5103C50.8116 42.5157 51.0653 42.2761 51.0707 42.0092C51.0707 41.8348 50.9196 41.6878 50.7252 41.6769C50.4877 41.666 50.2663 41.9057 50.2609 42.1835C50.2609 42.4014 50.3473 42.5048 50.5471 42.5103Z" fill="#D41367"/>
<path d="M52.4042 41.0559C52.4042 41.0559 52.4474 41.0559 52.469 41.0559C52.7929 41.0613 53.0466 40.8489 53.0844 40.5221C53.1168 40.2388 52.971 40.0699 52.6147 39.9773C52.2638 39.8902 51.9399 40.1299 51.8859 40.5221C51.8373 40.8598 51.9939 41.0178 52.4042 41.0504V41.0559Z" fill="#D41367"/>
<path d="M54.6122 64.8819C54.6824 64.8057 54.731 64.7239 54.7741 64.6313C55.0063 64.1465 55.2492 63.6672 55.5677 63.2314C56.1238 62.4579 56.6583 61.6681 57.2035 60.8837C57.738 60.1102 58.3156 59.3639 58.7691 58.5305C59.1956 57.7406 59.6113 56.9453 60.027 56.1446C60.4157 55.3874 60.8044 54.6248 61.1769 53.8568C61.5926 52.9852 61.9489 52.0864 62.2188 51.155C62.4078 50.5067 62.4887 49.8367 62.6129 49.1776C62.7695 48.3333 62.8235 47.4781 62.8288 46.6283C62.845 44.7381 62.8666 42.848 62.7911 40.9578C62.7749 40.5329 62.7317 40.108 62.6939 39.6831C62.6237 38.9859 62.4078 38.3213 62.262 37.6404C62.0677 36.7416 61.9435 35.8265 61.7113 34.9332C61.5872 34.4538 61.5224 33.9581 61.5224 33.4624C61.5332 32.0244 61.4522 30.5863 61.409 29.1428C61.3712 27.879 61.1877 26.6316 61.0203 25.3842C60.9231 24.6597 60.7288 23.9516 60.6586 23.2217C60.5021 21.6147 60.135 20.0514 59.6437 18.5153C59.4817 18.0141 59.3252 17.513 59.1848 17.001C59.0714 16.5815 58.9473 16.1566 58.8177 15.7426C58.5424 14.8765 58.2239 14.0213 57.8513 13.1934C57.4357 12.2728 57.1711 11.2868 56.7446 10.3717C56.1508 9.1025 55.5461 7.8333 54.7256 6.68394C54.6068 6.52052 54.5096 6.34621 54.407 6.1719C54.2721 5.94312 54.1047 5.75246 53.878 5.62173C53.5865 5.45832 53.3111 5.491 53.0952 5.74702C52.5877 6.37345 52.1018 7.02166 51.8103 7.78972C51.4324 8.77567 51.0545 9.76161 50.601 10.7203C49.7535 12.5125 49.111 14.3808 48.5766 16.2874C48.0799 18.0632 47.675 19.8607 47.1729 21.6311C46.687 23.3415 46.239 25.0574 45.9474 26.8168C45.8719 27.2744 45.7747 27.732 45.6883 28.195C45.6667 28.195 45.6397 28.195 45.6181 28.195C45.5857 28.0315 45.5533 27.8681 45.521 27.7047C45.2888 26.5118 45.1269 25.3079 44.8083 24.1313C44.1605 21.7673 43.5667 19.3923 42.9296 17.0282C42.5139 15.4648 42.0659 13.9069 41.4396 12.409C40.7702 10.8129 40.0414 9.24413 39.4259 7.6263C39.1506 6.91272 38.6755 6.32987 38.2059 5.74157C38.0061 5.491 37.7362 5.45832 37.4554 5.61084C37.2665 5.70889 37.0991 5.85051 36.9912 6.03572C36.5863 6.7493 36.068 7.38663 35.7009 8.122C35.1233 9.26591 34.4916 10.3771 34.0921 11.6082C33.9086 12.1693 33.6764 12.7249 33.4335 13.2642C32.9908 14.261 32.6237 15.2851 32.3214 16.3364C32.0731 17.1971 31.8193 18.0577 31.5494 18.9184C31.2093 19.9969 30.9447 21.1027 30.7828 22.2303C30.6856 22.9057 30.6316 23.5921 30.4913 24.2675C30.2105 25.613 30.0378 26.9748 29.946 28.342C29.8434 29.9381 29.7678 31.5341 29.7948 33.1356C29.8002 33.5986 29.7517 34.0562 29.6815 34.5137C29.5357 35.4234 29.2604 36.3059 29.1308 37.221C29.0444 37.8311 28.8393 38.4248 28.7205 39.0295C28.4938 40.1734 28.4884 41.3336 28.4776 42.4939C28.4668 44.0572 28.4668 45.6206 28.4938 47.1894C28.51 48.208 28.6719 49.2103 28.8555 50.2017C29.1092 51.5635 29.6275 52.849 30.2483 54.091C30.6532 54.9026 31.0527 55.7197 31.4738 56.5259C31.9165 57.3702 32.3322 58.2363 32.8397 59.0371C33.5145 60.1047 34.2649 61.1342 34.9937 62.1692C35.4364 62.8011 35.9169 63.4112 36.2624 64.1084C36.4837 64.5551 36.7374 64.9691 37.0614 65.3449C37.2881 65.6118 37.4555 65.9114 37.6336 66.2165C38.0493 66.941 38.3138 67.7308 38.6593 68.488C39.5231 70.4054 40.2519 72.3773 40.8728 74.3819C40.9213 74.5398 40.9753 74.6488 41.1589 74.6433C41.2345 74.6433 41.3154 74.6651 41.3802 74.7032C41.9417 74.9919 42.5517 75.1281 43.1456 75.3242C43.5667 75.4604 43.9986 75.4931 44.4304 75.504C45.521 75.5367 46.5791 75.2697 47.648 75.1336C48.42 75.041 49.1812 74.8721 49.964 74.834C50.2879 74.8176 50.4985 74.5997 50.4985 74.2729C50.4985 74.1803 50.5201 74.0931 50.5524 74.0114C50.9357 72.9111 51.2651 71.7835 51.7131 70.705C52.1828 69.5774 52.6579 68.4444 53.1384 67.3223C53.5163 66.4398 53.9698 65.6064 54.623 64.8874L54.6122 64.8819ZM55.7945 12.6486C55.8863 12.8611 56.0428 13.0844 56.0428 13.2968C56.0428 13.5256 55.7621 13.6455 55.6109 13.8198C55.2816 14.2011 54.9469 14.5715 54.6122 14.9474C54.5906 14.9474 54.569 14.9365 54.5474 14.931C54.5474 14.6804 54.5474 14.4244 54.5474 14.1684C54.5474 13.6509 54.5474 13.1334 54.5474 12.6214C54.5474 12.4634 54.5798 12.3436 54.704 12.2401C54.9145 12.0603 55.1143 11.8697 55.3464 11.6518C55.503 12.0004 55.6541 12.3218 55.7945 12.6486ZM55.0441 10.8565C55.0819 10.9437 55.1089 11.0199 55.0279 11.0962C54.8821 11.2324 54.7472 11.374 54.5636 11.5537C54.4556 10.8402 54.542 10.181 54.5096 9.52193C54.6824 9.9686 54.8659 10.4098 55.0495 10.8511L55.0441 10.8565ZM54.4826 18.3954C54.4826 17.7799 54.5582 17.1589 54.542 16.5434C54.542 16.4453 54.542 16.3527 54.6284 16.271C55.1736 15.759 55.6595 15.1816 56.1832 14.6478C56.275 14.5497 56.3559 14.4408 56.5179 14.3482C56.777 14.9582 56.9876 15.5629 57.1873 16.1675C57.2197 16.2601 57.1873 16.3037 57.1279 16.3636C56.4099 17.1317 55.6487 17.8616 54.8821 18.5806C54.7202 18.7332 54.6122 18.9238 54.4556 19.1254C54.3962 18.8476 54.4772 18.6188 54.4826 18.39V18.3954ZM54.3531 21.4513C54.3693 21.0373 54.3747 20.6179 54.3747 20.2039C54.3747 20.0187 54.4232 19.8825 54.6068 19.8008C54.8335 19.7028 55.0117 19.5285 55.1952 19.3596C55.9294 18.6896 56.6637 18.0196 57.3979 17.3441C57.4357 17.3114 57.4734 17.257 57.5436 17.257C57.5544 17.2788 57.5814 17.306 57.5868 17.3387C57.7866 18.1449 58.1051 18.9129 58.321 19.7137C58.3642 19.8716 58.348 19.9751 58.2346 20.1004C57.8783 20.4872 57.5166 20.8685 57.1171 21.2116C57.0146 21.2988 56.9174 21.3914 56.804 21.4622C55.9672 21.9688 55.2492 22.6279 54.5204 23.2707C54.4502 23.3361 54.3908 23.4232 54.2613 23.445C54.2883 22.775 54.3261 22.1104 54.3477 21.4459L54.3531 21.4513ZM53.9752 27.4977C54.0237 26.8495 54.0345 26.1958 54.1317 25.5476C54.1749 25.2644 54.1587 24.9648 54.1587 24.6706C54.1587 24.48 54.2235 24.3492 54.3801 24.2512C55.1035 23.7882 55.7513 23.2162 56.4585 22.7205C57.1009 22.2738 57.7218 21.7945 58.321 21.2879C58.4128 21.2116 58.4938 21.119 58.6341 21.07C58.7853 21.5439 58.8879 22.0233 58.9689 22.5081C59.0336 22.8948 59.0714 23.287 59.147 23.6738C59.1794 23.8644 59.147 23.9788 58.9904 24.1041C57.7974 25.1391 56.5449 26.1032 55.3896 27.1763C54.9955 27.5413 54.569 27.8681 54.1209 28.1677C54.0777 28.195 54.0399 28.2494 53.9698 28.2276C53.9698 27.9825 53.9536 27.7374 53.9698 27.4977H53.9752ZM53.635 31.9154C53.6027 31.0711 53.7268 30.2322 53.8294 29.3934C53.8456 29.2299 53.9266 29.1264 54.0345 29.0284C54.8389 28.3148 55.6541 27.6176 56.5233 26.9857C57.3547 26.381 58.1753 25.7601 58.9743 25.1064C59.0606 25.041 59.147 24.9702 59.2712 24.8776C59.3036 25.0737 59.336 25.2371 59.3468 25.3951C59.4007 26.1795 59.5195 26.9584 59.4979 27.7483C59.4979 27.9389 59.4547 28.0969 59.336 28.244C59.1254 28.5055 58.9095 28.7669 58.6449 28.9739C58.0403 29.4533 57.4411 29.949 56.7662 30.3248C55.7621 30.8859 54.8443 31.594 53.8996 32.2477C53.8186 32.3022 53.7592 32.3839 53.6296 32.4057C53.5919 32.2368 53.6404 32.0734 53.6296 31.91L53.635 31.9154ZM53.0358 9.05892C53.133 8.84648 53.2733 8.66672 53.4731 8.45428C53.7052 10.0503 53.5865 11.5919 53.5919 13.1225C53.4299 13.1661 53.3867 13.0681 53.3273 13.0081C52.9332 12.6268 52.5499 12.2346 52.1234 11.886C52.0209 11.8043 51.9885 11.7281 52.0371 11.6028C52.3448 10.7476 52.6525 9.89234 53.0304 9.06437L53.0358 9.05892ZM51.6646 12.7249C51.7887 12.714 51.8373 12.8012 51.9021 12.8556C52.4312 13.3023 52.917 13.798 53.3813 14.3155C53.5109 14.4571 53.5649 14.6042 53.5649 14.7948C53.5541 15.3995 53.5649 16.0041 53.5649 16.6796C52.9818 16.173 52.4581 15.7154 51.9399 15.2578C51.6969 15.0454 51.4864 14.7948 51.2273 14.5987C51.1409 14.5334 51.0977 14.4734 51.1409 14.3482C51.3244 13.8089 51.4972 13.2642 51.6754 12.7249H51.6646ZM50.1961 17.1208C50.3959 16.5597 50.5686 15.9932 50.7576 15.4267C50.7738 15.3777 50.8008 15.3287 50.8386 15.2578C51.2975 15.6718 51.7455 16.0695 52.1882 16.4835C52.5985 16.8593 52.998 17.2515 53.4029 17.6328C53.4839 17.7091 53.5595 17.7853 53.5595 17.9161C53.5595 18.6297 53.5109 19.3433 53.4785 20.1276C53.2517 19.9533 53.0682 19.8389 52.9224 19.6919C52.4635 19.2343 51.9453 18.8421 51.4648 18.4063C51.1031 18.0795 50.709 17.7799 50.3203 17.4749C50.1907 17.3768 50.1314 17.2951 50.1907 17.1153L50.1961 17.1208ZM49.7804 18.5371C49.7804 18.5371 49.8074 18.5044 49.8344 18.4717C50.2447 18.7931 50.6604 19.0927 51.0491 19.4304C51.6538 19.9588 52.2422 20.509 52.8361 21.0591C53.3543 21.5385 53.3381 21.5439 53.2733 22.2466C53.2032 22.9711 53.1546 23.701 53.0952 24.4309C53.0682 24.7523 53.0412 25.0683 53.0142 25.3842C52.9062 25.4005 52.8738 25.3297 52.8307 25.2807C52.4258 24.8504 51.9777 24.4582 51.5026 24.0987C50.6226 23.4396 49.8506 22.6552 49.0138 21.947C48.9383 21.8871 48.9005 21.8272 48.9275 21.7182C49.219 20.656 49.4997 19.5938 49.7912 18.5316L49.7804 18.5371ZM48.6953 22.5843C48.7709 22.5571 48.8141 22.6007 48.8519 22.6334C49.7427 23.4613 50.6928 24.2348 51.5242 25.1336C51.7617 25.3897 51.9885 25.6457 52.172 25.9453C52.2854 26.1359 52.4258 26.3157 52.5877 26.4736C52.8037 26.6861 52.917 26.9203 52.8792 27.2526C52.8037 27.9172 52.7659 28.5817 52.6633 29.2408C52.5715 29.2572 52.5445 29.1973 52.5121 29.1591C51.9669 28.5163 51.3352 27.9607 50.6766 27.4378C50.2285 27.0837 49.8182 26.6915 49.4241 26.2775C49.0408 25.8745 48.6251 25.4931 48.2203 25.1118C48.1177 25.0192 48.0907 24.9266 48.1231 24.7905C48.3174 24.0551 48.5064 23.3143 48.6899 22.5843H48.6953ZM47.2593 27.8409C47.4375 27.2036 47.6102 26.5662 47.783 25.9235C47.8046 25.8418 47.8046 25.7492 47.9017 25.6838C48.2257 25.9398 48.5118 26.2394 48.7763 26.5554C49.2838 27.1545 49.8344 27.7102 50.4229 28.2331C50.8602 28.6198 51.2597 29.0447 51.5998 29.5241C51.8373 29.8618 52.1558 30.1342 52.3664 30.4991C52.442 30.6353 52.4689 30.7497 52.4474 30.9077C52.4042 31.289 52.334 31.6648 52.334 32.0461C52.334 32.1224 52.3502 32.2041 52.2962 32.2586C52.1936 32.2804 52.145 32.2096 52.0856 32.1605C51.535 31.7411 50.9843 31.3217 50.4337 30.9022C49.6995 30.3357 48.9383 29.8073 48.1069 29.3879C47.7722 29.2136 47.4698 28.9739 47.1513 28.7724C47.0488 28.707 47.0272 28.6307 47.065 28.5163C47.1405 28.293 47.2053 28.0697 47.2701 27.8409H47.2593ZM43.7124 26.588C43.8852 27.1927 44.0471 27.7973 44.2199 28.402C44.3009 28.6907 44.3225 28.6471 44.0471 28.8541C43.4641 29.2899 42.7947 29.584 42.1846 29.9762C41.4234 30.4665 40.7216 31.0439 40.0036 31.5886C39.7445 31.7847 39.4853 31.9753 39.2262 32.1714C39.1668 32.215 39.1128 32.2804 39.0102 32.264C38.9725 31.8827 38.9725 31.496 38.8915 31.131C38.7997 30.7279 38.9617 30.4338 39.1938 30.156C39.847 29.3607 40.4787 28.5436 41.2723 27.879C41.7257 27.5032 42.1198 27.0511 42.5031 26.5989C42.7839 26.2667 43.0808 25.9507 43.4371 25.6675C43.5721 25.978 43.6368 26.2884 43.7178 26.588H43.7124ZM42.7893 23.2816C42.9188 23.7827 43.043 24.2839 43.178 24.7796C43.2158 24.9103 43.205 25.0029 43.097 25.1064C42.0928 26.0106 41.2075 27.0456 40.1224 27.8627C39.6797 28.2004 39.2856 28.6035 38.9131 29.0229C38.8429 29.1046 38.7889 29.2081 38.6431 29.2626C38.546 28.5381 38.4812 27.83 38.4272 27.1273C38.4164 26.9476 38.4434 26.7896 38.5676 26.6643C38.9023 26.3157 39.1452 25.8962 39.4475 25.5204C39.8362 25.0465 40.2789 24.6107 40.727 24.1913C41.2669 23.6901 41.8229 23.2053 42.3736 22.7151C42.4384 22.6606 42.4977 22.5898 42.6111 22.5571C42.6759 22.8077 42.7299 23.0419 42.7893 23.2761V23.2816ZM41.4558 18.488C41.553 18.5316 41.553 18.6188 41.5746 18.6896C41.8553 19.6592 42.0551 20.656 42.3628 21.6202C42.4222 21.7999 42.3682 21.898 42.2278 22.0178C41.2831 22.8404 40.3707 23.701 39.372 24.4582C39.0534 24.7033 38.7619 24.9866 38.4866 25.2807C38.4434 25.3243 38.4056 25.3842 38.2922 25.4114C38.2221 24.4854 38.1519 23.5921 38.0817 22.6933C38.0601 22.3937 38.0439 22.0886 38.0007 21.789C37.9791 21.6365 38.0169 21.533 38.1141 21.4295C38.384 21.1299 38.6809 20.8576 38.9887 20.6016C39.264 20.3728 39.5285 20.1331 39.7822 19.8771C40.2897 19.3487 40.8944 18.9511 41.4558 18.4989V18.488ZM40.5758 15.5139C40.754 16.0586 40.9267 16.6033 41.1103 17.1426C41.1589 17.2842 41.1319 17.3605 41.0185 17.4531C40.1332 18.1503 39.2748 18.8802 38.4434 19.6483C38.2652 19.8117 38.0655 19.9479 37.828 20.1385C37.7956 19.3814 37.7416 18.7114 37.747 18.0359C37.747 17.8997 37.7524 17.7799 37.8657 17.671C38.6971 16.843 39.5879 16.0804 40.4463 15.2796C40.5434 15.345 40.5488 15.4376 40.5758 15.5193V15.5139ZM39.6257 12.6759C39.82 13.2642 39.9928 13.8089 40.1763 14.3536C40.2087 14.4517 40.1979 14.5116 40.117 14.5824C39.3504 15.2633 38.5892 15.9551 37.828 16.636C37.7146 16.5815 37.7578 16.4889 37.7578 16.4181C37.7578 15.8679 37.7578 15.3178 37.7578 14.7676C37.7578 14.6423 37.7578 14.5279 37.8495 14.4244C38.384 13.8034 38.9617 13.2315 39.6365 12.6759H39.6257ZM37.8495 8.48152C38.0115 8.62859 38.1303 8.79201 38.2167 8.96632C38.6431 9.82153 38.9401 10.7312 39.2748 11.6246C39.3072 11.7172 39.2964 11.788 39.2154 11.8588C38.7349 12.2455 38.3084 12.6922 37.8657 13.1171C37.8495 13.1334 37.828 13.1334 37.774 13.1552C37.6336 12.6813 37.6876 9.33128 37.8495 8.48152ZM36.7914 9.51104C36.7698 10.1756 36.8508 10.8347 36.7482 11.532C36.5485 11.3958 36.4189 11.2269 36.2678 11.0798C36.2246 11.0417 36.2084 10.9872 36.2354 10.9273C36.4189 10.4589 36.6079 9.98495 36.7968 9.51104H36.7914ZM35.2744 13.1934C35.4958 12.6922 35.7117 12.1911 35.9384 11.6736C35.9924 11.6954 36.0032 11.7008 36.014 11.7063C36.2516 11.9242 36.5485 12.1094 36.7104 12.3763C36.867 12.6377 36.7482 12.9918 36.7536 13.3023C36.7644 13.7599 36.7536 14.2229 36.7536 14.6804V14.9474C36.6187 14.9201 36.5809 14.833 36.5269 14.7676C36.1436 14.3318 35.7657 13.8906 35.3554 13.4766C35.269 13.3895 35.215 13.3186 35.2744 13.1879V13.1934ZM34.767 14.3808C34.9073 14.3536 34.9505 14.468 35.0153 14.5334C35.5012 15.0454 35.9708 15.5738 36.4729 16.0695C36.6888 16.2819 36.7752 16.4889 36.7698 16.794C36.7698 17.4422 36.7968 18.0958 36.8562 18.7441C36.867 18.853 36.8562 18.9619 36.8562 19.1526C36.4729 18.5371 35.9492 18.1558 35.5012 17.7091C35.0477 17.257 34.605 16.7994 34.1569 16.3473C34.0867 16.2765 34.0921 16.222 34.1191 16.1403C34.3135 15.5465 34.524 14.9528 34.767 14.3754V14.3808ZM33.061 19.4413C33.2715 18.7114 33.5631 18.0032 33.725 17.2679C33.8492 17.257 33.887 17.3332 33.941 17.3823C34.686 18.0577 35.4256 18.7386 36.1706 19.4195C36.3379 19.572 36.5053 19.7191 36.7104 19.8117C36.8832 19.888 36.9264 20.0133 36.9264 20.1876C36.9264 20.6125 36.9318 21.0428 36.948 21.4677C36.9696 22.1268 37.0074 22.7859 37.0344 23.4504C36.8994 23.4396 36.8292 23.3252 36.7374 23.2435C36.0248 22.617 35.3122 21.9906 34.5078 21.4731C33.914 21.0918 33.4551 20.5416 32.98 20.0187C32.9152 19.9533 32.926 19.8825 32.9476 19.8008C32.9854 19.681 33.0124 19.5611 33.0502 19.4467L33.061 19.4413ZM32.6183 21.2007C32.6291 21.1572 32.6507 21.119 32.6885 21.0428C32.8666 21.1899 33.0124 21.3097 33.1582 21.4295C34.2865 22.3501 35.4796 23.1835 36.6457 24.0496C37.2179 24.4745 37.1423 24.2839 37.1531 25.0301C37.1585 25.4114 37.2125 25.7927 37.2395 26.1741C37.2881 26.855 37.3259 27.5413 37.3637 28.2168C37.2287 28.2494 37.1747 28.1623 37.1099 28.1133C36.5701 27.7537 36.068 27.3398 35.6091 26.8767C35.0693 26.3375 34.4268 25.918 33.8546 25.4169C33.3363 24.9593 32.8343 24.4745 32.2728 24.0605C32.1756 23.9897 32.1162 23.9135 32.1378 23.7827C32.2836 22.9221 32.3754 22.0451 32.6183 21.2007ZM32.0137 24.9321C32.1162 24.8994 32.1594 24.9648 32.208 25.0029C33.5415 26.1305 35.0153 27.0783 36.3433 28.2168C36.6673 28.4946 36.9858 28.7778 37.3043 29.0556C37.3799 29.121 37.4501 29.1918 37.4662 29.3062C37.612 30.3303 37.7146 31.3598 37.6714 32.4329C37.2827 32.1605 36.921 31.9209 36.5701 31.6648C35.8467 31.1419 35.0963 30.6517 34.3243 30.1995C33.7142 29.8455 33.169 29.3934 32.6237 28.9521C32.0623 28.4946 31.6898 27.9662 31.7977 27.1654C31.9003 26.4246 31.9165 25.6729 32.0137 24.9375V24.9321ZM50.0234 70.3782C49.6725 71.2715 49.3863 72.203 49.1218 73.129C49.0408 73.4122 49.0462 73.4177 48.7493 73.4395C48.1609 73.4776 47.567 73.5049 46.9786 73.5375C46.3901 73.5702 45.8017 73.641 45.2078 73.6519C44.7705 73.6628 44.3387 73.6792 43.9014 73.6792C43.7664 73.6792 43.6314 73.6792 43.5073 73.6192C43.205 73.4831 42.8972 73.5103 42.5895 73.5702C42.3466 73.6138 42.3034 73.6084 42.2548 73.3796C42.1036 72.6878 41.8067 72.0396 41.6178 71.3532C41.3262 70.2964 40.8404 69.3214 40.4139 68.3191C39.9658 67.2678 39.4367 66.2492 38.8969 65.236C38.5892 64.6586 38.2706 64.0757 37.8441 63.5964C37.2935 62.9645 36.948 62.1964 36.4081 61.57C35.8683 60.9381 35.3554 60.2845 34.8533 59.6199C34.7292 59.451 34.5672 59.304 34.4214 59.1569C34.1407 58.8791 33.8924 58.5741 33.6926 58.2363C33.0556 57.1796 32.4671 56.0956 32.0299 54.9299C31.7383 54.1509 31.4036 53.3883 31.1175 52.6094C30.637 51.3129 30.3617 49.9729 30.1997 48.6111C30.135 48.0391 30.1889 47.4617 30.1727 46.8898C30.1404 45.8766 30.2213 44.8689 30.3617 43.8666C30.4373 43.311 30.4535 42.7445 30.5129 42.1834C30.5992 41.3227 30.7072 40.4675 30.8638 39.6123C31.1067 38.2995 31.3011 36.9759 31.5278 35.6576C31.6358 35.0258 31.7437 34.3939 31.8787 33.7675C31.9867 33.25 31.9975 32.7434 31.8301 32.2422C31.7221 31.9154 31.7167 31.5831 31.7329 31.2454C31.7545 30.6843 31.7383 30.1178 31.7437 29.5568V29.1646C31.7977 29.121 31.8409 29.1373 31.8733 29.1646C32.9746 30.205 34.1839 31.1147 35.3392 32.0843C36.1814 32.7924 37.0074 33.5114 37.9035 34.1433C38.0925 34.2741 38.2005 34.2686 38.4056 34.0997C38.7187 33.8492 39.0372 33.604 39.3396 33.348C40.8188 32.1006 42.4168 31.0057 43.9662 29.84C44.1335 29.7147 44.3009 29.5895 44.4952 29.4369C44.6194 29.9817 44.7274 30.4937 44.8461 31.0057C44.9487 31.4524 45.0405 31.9045 45.1916 32.3457C45.224 32.4438 45.2348 32.5418 45.224 32.6453C45.1916 32.9613 45.3104 33.2391 45.4562 33.506C45.5102 33.604 45.5533 33.7239 45.6991 33.6912C45.8341 33.664 45.9043 33.5768 45.9312 33.4352C45.9906 33.1519 46.0878 32.8687 46.1202 32.58C46.158 32.2422 46.2228 31.9154 46.3199 31.594C46.5089 30.9839 46.6007 30.3466 46.7842 29.7311C46.8058 29.6603 46.822 29.584 46.8922 29.5077C47.1135 29.6712 47.3349 29.84 47.5562 30.0034C48.8087 30.924 50.072 31.8283 51.2921 32.7924C51.6862 33.1029 52.0856 33.4079 52.4474 33.7566C52.6039 33.9091 52.8091 34.0126 52.9818 34.1542C53.1114 34.2686 53.2463 34.2468 53.4029 34.1379C54.3531 33.4624 55.2438 32.7107 56.113 31.9372C56.4909 31.6049 56.9012 31.3162 57.3007 31.0057C57.9701 30.4828 58.5964 29.8999 59.2334 29.3334C59.3198 29.2572 59.3899 29.1482 59.5195 29.1155C59.5843 29.2136 59.5573 29.3062 59.5573 29.3879C59.5681 30.1178 59.5357 30.8532 59.5789 31.5831C59.5951 31.8827 59.5033 32.166 59.4169 32.4383C59.2928 32.8578 59.3306 33.2609 59.4061 33.6694C59.5897 34.6771 59.8056 35.674 59.9514 36.6872C60.0972 37.7003 60.2699 38.7081 60.4481 39.7158C60.691 41.0449 60.8098 42.3849 60.9231 43.7304C60.9609 44.1989 61.0365 44.6673 61.0905 45.1358C61.1067 45.2938 61.1229 45.4463 61.1229 45.6042C61.1229 46.2579 61.1121 46.9116 61.1229 47.5652C61.1499 48.8127 60.9123 50.0274 60.61 51.2312C60.3779 52.1463 60.0324 53.0233 59.6761 53.9003C59.4763 54.3906 59.2928 54.8863 59.0876 55.3711C58.6719 56.357 58.1645 57.294 57.6138 58.2091C57.4033 58.5523 57.1549 58.8736 56.8634 59.1515C56.5935 59.4075 56.3721 59.7016 56.1454 59.9958C55.6865 60.5895 55.206 61.1669 54.7364 61.7552C54.6122 61.9132 54.4934 62.0766 54.3908 62.2509C54.1371 62.6758 53.8618 63.0789 53.5433 63.4602C53.1546 63.9178 52.8415 64.4407 52.5445 64.9745C51.5674 66.7067 50.7414 68.5207 50.0126 70.3727L50.0234 70.3782Z" fill="#D41367"/>
<path d="M55.7297 50.2344C55.1845 49.1831 54.4125 48.524 53.133 48.6002C52.7983 48.5893 52.4312 48.6492 52.0641 48.6874C51.508 48.7418 51.0113 48.9488 50.5525 49.2648C50.018 49.6297 49.6941 50.169 49.3918 50.7246C48.8249 51.7596 48.7547 52.8599 48.9815 53.9984C49.1272 54.7338 49.5375 55.3166 50.045 55.8341C50.6874 56.4823 51.4216 56.9399 52.3826 56.8636C52.4474 56.8582 52.5175 56.8582 52.5823 56.8636C53.133 56.88 53.6513 56.7111 54.1101 56.4388C55.0063 55.9049 55.6811 55.1478 56.0644 54.1564C56.221 53.7533 56.3991 53.3338 56.3398 52.8817C56.2264 51.9829 56.1562 51.0733 55.7243 50.2398L55.7297 50.2344ZM54.3855 50.7737C54.6284 51.1713 54.6014 51.2639 54.1965 51.4927C53.8888 51.667 53.5595 51.8086 53.2626 52.0047C53.2194 52.032 53.1708 52.081 53.1168 52.032C53.0466 51.9611 53.1114 51.9067 53.1438 51.8576C53.4731 51.4219 53.8348 51.0133 54.2343 50.5885C54.3045 50.6702 54.3531 50.7192 54.3855 50.7737ZM54.4934 53.9439C54.4179 54.5159 54.0993 54.8754 53.6081 55.1205C53.106 55.3711 52.5769 55.4092 52.0425 55.3384C51.7132 55.2948 51.3784 55.3221 51.0599 55.175C50.5579 54.9462 50.2555 54.5704 50.1962 54.0256C50.1152 53.2303 50.1961 52.4568 50.5363 51.7215C50.8332 51.0896 51.3622 50.7028 51.9129 50.3324C52.3988 50.0002 52.9278 49.9675 53.4785 50.1036C53.6459 50.1418 53.7862 50.2289 53.9428 50.3651C53.6566 50.6429 53.3921 50.8935 53.1276 51.155C52.9872 51.2966 52.8469 51.4437 52.7119 51.5962C52.6363 51.6833 52.5553 51.7433 52.4258 51.7433C52.28 51.7433 52.145 51.7923 52.0101 51.8576C51.5674 52.0864 51.4378 52.4296 51.616 52.8981C51.7779 53.3229 52.1612 53.5735 52.6093 53.5517C53.052 53.5245 53.3489 53.2412 53.3219 52.7891C53.3111 52.5331 53.3975 52.4024 53.6081 52.2934C53.932 52.1246 54.2451 51.9394 54.6122 51.7324C54.6122 51.9067 54.6122 52.0374 54.6122 52.1681C54.623 52.7619 54.5582 53.3556 54.4826 53.9439H54.4934Z" fill="#D41367"/>
<path d="M54.3261 39.5142C54.5744 39.3344 54.7094 39.0784 54.731 38.7734C54.7472 38.5228 54.5744 38.2995 54.3153 38.2286C54.1101 38.1742 53.9104 38.245 53.8078 38.4465C53.7052 38.6535 53.5919 38.866 53.5973 39.0457C53.5973 39.2963 53.5919 39.4815 53.7862 39.5796C53.9752 39.6722 54.1587 39.6286 54.3207 39.5142H54.3261Z" fill="#D41367"/>
<path d="M57.6948 55.5618C58.2724 54.4233 58.6827 53.2195 58.8231 51.9448C58.9473 50.8391 58.9959 49.7224 58.9365 48.5458C58.9203 47.5489 58.8123 46.4922 58.7907 45.4354C58.7691 44.5748 58.6288 43.7359 58.4506 42.9025C58.1375 41.4099 57.7488 39.9283 57.5436 38.4085C57.5112 38.1634 57.4465 38.1416 57.2035 38.2832C56.4099 38.7517 55.7081 39.34 55.0441 39.9773C54.5096 40.5003 54.0561 41.1158 53.4461 41.5625C52.7605 42.0636 52.1396 42.6519 51.4864 43.1966C50.736 43.8231 50.153 44.5802 49.6401 45.4082C49.2676 46.0074 48.9491 46.6447 48.6413 47.282C48.3606 47.8649 48.0745 48.4586 47.8855 49.0796C47.5346 50.2399 47.2161 51.411 46.9462 52.5931C46.7518 53.4592 46.6061 54.3307 46.6439 55.2295C46.6655 55.698 46.7087 56.1719 46.7087 56.6458C46.7087 57.3594 46.8112 58.0621 46.957 58.7539C47.2485 60.1538 47.6912 61.5047 48.1933 62.8447C48.2958 63.1171 48.4254 63.3785 48.609 63.6073C48.7277 63.7598 48.8357 63.9178 48.9221 64.0812C49.057 64.3318 49.2352 64.5388 49.4673 64.7077C49.7859 64.9364 49.8884 64.9364 50.1584 64.675C50.2123 64.6205 50.2663 64.5606 50.3149 64.5007C50.6658 64.0213 51.0383 63.5583 51.3622 63.0626C51.8319 62.349 52.3718 61.6845 52.9602 61.0689C54.0453 59.9359 55.1629 58.8356 56.1994 57.6535C56.7716 57.0053 57.3007 56.3298 57.6948 55.5509V55.5618ZM52.9656 58.8682C51.67 60.1429 50.5471 61.5755 49.6023 63.1389C49.5699 63.1933 49.5537 63.2641 49.4673 63.2914C49.4026 62.605 49.1272 61.9732 48.9815 61.3086C48.8033 60.4752 48.6252 59.6417 48.4578 58.8029C48.3714 58.3725 48.2203 57.9586 48.1609 57.5228C48.0853 56.9563 47.9827 56.3898 47.9773 55.8124C47.9773 55.3058 47.9341 54.8046 47.9017 54.298C47.8478 53.3393 48.0529 52.4188 48.2958 51.5036C48.4362 50.9643 48.6629 50.4414 48.8249 49.9076C49.0408 49.1886 49.4781 48.6057 49.9154 48.0229C50.4985 47.2385 51.0977 46.4704 51.7293 45.7241C52.1504 45.2284 52.5985 44.76 53.0844 44.3242C54.4448 43.1204 55.7351 41.8512 56.9444 40.4894C57.0038 40.424 57.0632 40.3532 57.1279 40.2933C57.1387 40.2824 57.1657 40.2824 57.2035 40.2769C57.4195 41.2955 57.63 42.3142 57.7434 43.3546C57.8783 44.5857 57.9863 45.8167 57.9755 47.0587C57.9701 47.9357 57.8891 48.8073 57.8028 49.6842C57.738 50.3216 57.7002 50.9643 57.5652 51.5908C57.3007 52.8382 56.9012 54.0366 56.2534 55.1478C56.059 55.4746 55.8323 55.7851 55.5785 56.0684C54.7256 57.0216 53.8726 57.9695 52.9602 58.8682H52.9656Z" fill="#D41367"/>
<path d="M56.2858 38.0707C56.5665 37.9454 56.7824 37.7275 56.8742 37.4224C56.9228 37.2481 56.9282 37.0684 56.777 36.9268C56.4855 36.6598 56.0104 36.7034 55.7783 37.0303C55.6649 37.1882 55.6055 37.368 55.6217 37.5532C55.5785 38.038 55.978 38.2068 56.2911 38.0707H56.2858Z" fill="#D41367"/>
<path d="M41.0887 42.8316C41.3532 42.8316 41.5746 42.6083 41.5692 42.3359C41.5692 42.118 41.4612 42.0091 41.2453 41.9982C40.9861 41.9873 40.7756 42.2106 40.7702 42.4939C40.7702 42.7118 40.8782 42.8316 41.0887 42.8316Z" fill="#D41367"/>
<path d="M39.1614 41.715C39.4205 41.7749 39.6689 41.6279 39.8092 41.361C39.9388 41.0995 39.8524 40.8598 39.7876 40.6147C39.7714 40.5602 39.7121 40.5384 39.6635 40.5112C39.1992 40.2824 38.7619 40.5657 38.7565 41.1049C38.7565 41.4263 38.9077 41.6551 39.1668 41.715H39.1614Z" fill="#D41367"/>
<path d="M42.8864 45.1358C43.124 45.1304 43.3615 44.8852 43.3615 44.6564C43.3615 44.4712 43.1996 44.3242 42.9782 44.3187C42.7677 44.3078 42.5625 44.5475 42.5679 44.7981C42.5679 45.0214 42.6921 45.1467 42.8864 45.1412V45.1358Z" fill="#D41367"/>
<path d="M35.7441 37.7166C35.7441 37.4769 35.6793 37.3789 35.4256 37.2645C35.215 37.1719 35.0423 37.1882 34.9127 37.3462C34.7562 37.5423 34.659 37.7656 34.6752 38.0217C34.686 38.2069 34.7778 38.3049 34.9559 38.343C35.3662 38.4357 35.7387 38.1361 35.7495 37.7112L35.7441 37.7166Z" fill="#D41367"/>
<path d="M43.7394 50.2344C43.5127 49.4064 43.2481 48.6002 42.8918 47.8213C42.6867 47.3692 42.4707 46.9279 42.2494 46.4867C41.5908 45.1848 40.7972 43.981 39.6419 43.055C39.0426 42.5702 38.4866 42.0363 37.8603 41.5788C37.2341 41.1212 36.7698 40.4839 36.2138 39.9501C35.5605 39.3182 34.8641 38.7462 34.0759 38.2832C34.0381 38.2614 34.0003 38.2396 33.9572 38.2233C33.86 38.2015 33.779 38.2124 33.7628 38.3377C33.7466 38.4957 33.725 38.6482 33.698 38.8061C33.4875 40.0372 33.2175 41.2519 32.9368 42.4667C32.7803 43.153 32.5913 43.8503 32.5535 44.553C32.4833 45.9093 32.3484 47.2657 32.3484 48.6329C32.3376 49.3519 32.3376 50.071 32.3754 50.79C32.4348 51.9993 32.6183 53.1813 33.0556 54.3198C33.4173 55.2676 33.8384 56.1936 34.4862 56.9726C35.1287 57.7461 35.8197 58.4869 36.5053 59.2277C37.0398 59.7997 37.612 60.339 38.1573 60.9055C38.7403 61.5101 39.3018 62.1365 39.7606 62.8447C40.1278 63.4112 40.5542 63.9341 40.9483 64.4788C41.0401 64.6041 41.1481 64.7185 41.2723 64.8166C41.4126 64.9201 41.5584 64.931 41.7041 64.8166C41.9363 64.6423 42.1738 64.4788 42.3088 64.201C42.3898 64.0431 42.4869 63.8851 42.5949 63.7489C42.8486 63.4275 43.0268 63.068 43.1672 62.6867C43.5559 61.5973 43.9176 60.5024 44.1983 59.3748C44.371 58.6885 44.5114 57.9912 44.5546 57.2831C44.614 56.3298 44.6734 55.3766 44.6356 54.4178C44.6248 54.1509 44.614 53.8786 44.5546 53.6171C44.3171 52.4841 44.0363 51.362 43.734 50.2453L43.7394 50.2344ZM43.3399 55.4201C43.2805 56.1555 43.2535 56.9018 43.1132 57.6317C43.1024 57.6971 43.097 57.7679 43.0808 57.8278C42.8486 58.6177 42.6975 59.4238 42.5463 60.23C42.4276 60.8728 42.2494 61.4992 42.0928 62.1311C42.0011 62.507 41.8445 62.8719 41.8445 63.2968C41.7419 63.2641 41.7203 63.1933 41.6879 63.1334C40.7432 61.57 39.6203 60.1374 38.3246 58.8628C37.477 58.0293 36.6888 57.1415 35.8791 56.2699C35.1341 55.4692 34.632 54.5213 34.2595 53.4973C33.8438 52.3643 33.6008 51.1931 33.5091 49.9784C33.4335 48.9706 33.3147 47.9629 33.3093 46.9497C33.3093 45.7241 33.4173 44.5039 33.5523 43.2838C33.6602 42.2978 33.8708 41.3337 34.0543 40.364C34.0597 40.3368 34.0543 40.2987 34.1353 40.2714C34.2703 40.4185 34.4214 40.5819 34.5726 40.7454C35.485 41.7476 36.4189 42.7336 37.4447 43.6215C38.6539 44.6782 39.7391 45.8548 40.7054 47.1404C41.1373 47.7178 41.58 48.2788 41.9741 48.878C42.0712 49.0251 42.1738 49.1831 42.2386 49.3465C42.5733 50.1799 42.8756 51.0242 43.1024 51.8958C43.3993 53.0506 43.4425 54.2218 43.3399 55.4147V55.4201Z" fill="#D41367"/>
<path d="M37.2071 39.6994C37.2503 39.6994 37.2935 39.6994 37.3367 39.6994C37.5796 39.6667 37.7956 39.4488 37.828 39.22C37.8657 38.9531 37.774 38.8169 37.477 38.6862C37.3853 38.6481 37.2881 38.6208 37.1909 38.6154C36.8076 38.5827 36.5755 38.8115 36.6079 39.1982C36.6349 39.4978 36.867 39.6994 37.2071 39.7048V39.6994Z" fill="#D41367"/>
<path d="M43.4533 46.5302C43.6422 46.5356 43.8312 46.3559 43.842 46.1543C43.8528 45.9964 43.7718 45.8765 43.6369 45.8656C43.4479 45.8438 43.2482 46.0454 43.232 46.2687C43.2212 46.443 43.2913 46.5302 43.4533 46.5356V46.5302Z" fill="#D41367"/>
<path d="M68.6917 79.4586C68.6917 79.4586 68.6755 79.4586 68.6701 79.4531C68.6432 79.4531 68.6378 79.4586 68.6917 79.4586Z" fill="#D41367"/>
<path d="M90 0.719149H87.0578C84.8282 0.730044 82.5932 0.708255 80.3635 0.555733C72.6435 0.223453 51.5242 -0.718914 44.0148 1.0133C44.0202 0.882566 43.9662 0.811752 44.1552 0.762727C41.9903 1.02419 40.009 0.555733 37.9684 0.828094V0.702808C32.9045 1.78136 27.4303 0.555733 22.5392 1.72688C16.5953 1.60704 9.86868 1.72688 3.57391 2.05916L3.59011 1.7977C3.20681 1.84127 2.8397 1.84127 2.4618 1.86306C2.44021 1.7977 2.41861 1.74322 2.39162 1.68331C2.34843 1.74867 2.31064 1.80859 2.26205 1.86851C1.87875 1.8903 0.658671 1.93388 0.286168 1.93388H-0.00535583L0.0918189 2.23347C0.215987 2.62567 0.307763 3.02877 0.415735 3.42097C0.372546 3.48633 0.329357 3.56259 0.286168 3.62796C0.345553 3.62251 0.404937 3.61162 0.469721 3.60072C1.55484 7.49003 2.99626 11.4883 4.47008 15.2632C5.63078 20.7921 8.37327 25.7491 9.3774 31.3924C9.30722 35.1346 13.0592 38.6208 12.8919 42.1724C13.1402 48.4095 19.0841 73.8861 21.751 79.1862C22.4096 79.0555 23.9104 78.9302 24.5745 78.7994C30.3186 79.5076 32.5104 77.6828 38.0709 79.1317C40.7055 78.2002 57.9756 80.2865 60.907 80.0142L60.8044 79.6928C61.8572 80.6733 63.1474 78.3255 63.8007 79.7799L63.6927 79.8508C64.2487 80.5861 64.9829 78.1022 65.3231 78.9901L65.4094 78.6197C66.0843 78.5162 65.4904 79.0391 66.0087 79.1807C66.203 79.1372 66.0843 78.5162 66.4892 78.7286C67.4447 79.2679 68.0547 79.1753 68.6648 79.4585C68.8267 79.4313 70.1548 79.3169 70.5111 79.0882C70.7432 79.2625 71.7474 79.1862 71.6448 78.4726C71.6556 78.4072 71.6286 78.3691 71.607 78.3364C72.2279 77.8135 73.232 76.7132 73.3724 77.0291C74.0526 76.1031 73.286 74.8393 74.1012 74.0713L74.3333 74.2946C74.7274 73.6627 73.7017 73.9024 74.2739 73.3087C74.587 73.1071 74.5924 73.5102 74.6626 73.3849C75.0081 71.8652 79.4836 50.5883 79.2622 48.9487C79.9641 48.8235 79.5753 46.9714 80.3095 46.6337C80.2016 46.1652 80.3743 45.8057 80.0288 45.5116C81.9615 40.4456 81.2813 34.9385 82.9927 29.6493C82.6255 26.7405 82.0425 24.2729 82.5824 21.1843C82.6255 21.1843 83.7809 21.1952 83.8078 21.2333C83.8294 20.1657 84.1318 18.7167 84.6392 17.6218L84.4557 16.467C86.5773 12.0766 87.9486 7.34296 89.417 2.62567L90.0054 0.735491L90 0.719149ZM85.9079 4.7174L85.7135 4.54309L85.7891 5.41464L85.3464 5.27302C84.704 7.20678 84.5097 9.18411 83.9644 11.1015L83.5919 10.8564C83.7485 12.8882 82.4042 14.615 82.1289 16.5978L82.0263 16.4235C80.3851 21.1135 81.4487 25.7327 80.2772 30.559C80.2556 30.4664 80.1476 30.401 80.126 30.3084C80.1908 30.5862 80.3689 30.9348 80.2556 31.1799C80.1476 31.2126 80.0882 31.0383 80.0828 30.9403C79.1111 31.6865 79.5807 34.0125 78.8789 34.4428C78.8681 34.7479 79.1003 34.9712 79.3594 34.9004C78.3715 38.6481 79.0355 42.6354 78.3715 46.5792C78.2257 46.7263 78.0367 46.6936 77.8262 46.5574C77.8856 50.0654 72.6489 73.9678 71.2507 78.2493C70.6515 78.3473 69.5448 78.8594 69.0643 78.4563L68.9293 79.0064C68.6972 78.4563 68.7566 78.7341 68.6702 78.3146C67.774 78.2438 67.6498 77.4431 67.0128 77.1108C67.0128 77.1272 67.0236 77.138 67.0128 77.1653C66.5755 77.8244 65.9601 77.4376 65.6146 77.3396L65.4742 77.0291C65.2583 76.3863 64.4539 78.282 64.7238 77.1816C62.8991 77.4485 46.4496 77.4431 44.4089 77.4485C44.1228 77.8625 42.8487 77.4104 43.2968 78.2166C42.7839 77.296 41.2669 77.0672 40.7055 77.1054C40.7271 77.0182 40.7486 76.9202 40.8404 76.9528C39.7499 75.7599 39.5448 78.0586 38.519 76.5988C38.3625 77.6337 36.6565 76.2719 36.0843 77.4812C35.9493 77.247 35.9115 77.0454 35.9601 76.8657C34.1138 76.8439 32.0785 76.4735 30.5183 76.4245C30.3024 76.5715 30.1836 76.6478 30.0972 76.6968C30.135 76.7132 30.081 76.8276 29.6761 77.2633C28.7314 76.9964 27.1874 76.4789 25.8647 76.9801L25.9943 76.8276C25.4166 76.8548 24.7796 76.882 24.1534 76.9528C24.2343 76.528 24.121 76.1303 24.1912 75.6673C23.3868 74.8175 21.5188 72.3173 20.5903 70.901C20.9952 70.487 16.1904 49.7658 16.8653 49.4226C14.139 45.517 13.7773 40.4348 13.3184 35.3525C12.7353 34.9058 12.4654 34.0452 11.8014 33.6257C11.8446 33.5386 11.9579 33.5059 12.0011 33.6366C11.6016 32.825 12.0335 31.7628 11.634 30.9566C11.7132 30.9276 11.8032 30.9493 11.9039 31.022C11.3425 30.3302 11.9363 29.1481 11.0996 28.3964L11.2669 28.2766L10.8188 27.77C11.051 27.6992 11.4019 27.5902 11.4343 27.9443C9.34501 20.4707 5.76574 13.3022 3.56312 5.65432L3.87084 5.85587L3.01786 4.5322C3.13123 4.49407 3.21221 4.54309 3.28779 4.59756C3.25 4.19447 3.14203 3.81316 3.03405 3.43186C3.27699 3.42097 3.51993 3.39918 3.75747 3.41007C3.74667 3.53536 3.48214 3.79682 3.72507 3.93845C5.03693 3.21397 5.82513 4.88082 6.48376 3.37739C6.54854 3.44275 6.59173 3.78593 6.45676 3.90577C10.0954 3.40462 13.8258 3.43731 17.4969 3.67698C20.5525 2.32608 23.9644 3.54625 27.1334 2.47315L27.1172 2.74551C31.2201 1.7977 35.5822 2.81088 39.8363 2.62567C41.6016 2.72917 57.1604 2.41323 58.9311 2.386L58.9743 2.72917C61.9651 1.44363 65.2583 3.87853 68.3733 2.46226L68.1573 2.92527C68.6378 2.21713 70.0414 3.17039 69.8579 1.95567L70.4085 2.32063C72.5302 0.71915 74.2631 3.06145 76.8598 2.02103L76.6925 2.30973C77.3835 2.0864 78.1879 1.90664 78.6954 2.17355C78.6144 2.21168 78.6576 2.30429 78.4902 2.3751C80.6497 3.51357 83.0574 2.24981 85.341 2.29884L85.0819 2.83811C85.4652 2.62023 85.9727 2.56575 86.5179 2.54941C86.2642 3.27934 85.9943 4.02016 85.8971 4.70651L85.9079 4.7174Z" fill="#D41367"/>
<path d="M30.0918 76.7023C29.838 76.8494 30.0432 76.686 30.0918 76.7023V76.7023Z" fill="#D41367"/>
<path d="M14.0471 34.873C14.0471 34.873 14.1023 34.9061 14.1188 34.9226L14.0471 34.873Z" fill="#D41367"/>
<path d="M22.6363 79.3007C22.6147 79.2625 22.5985 79.2244 22.5769 79.1863C22.5499 79.1863 22.5229 79.1972 22.5013 79.1972L22.6363 79.3007Z" fill="#D41367"/>
<path d="M80.0774 30.9354C80.0774 30.9354 80.0774 30.9188 80.094 30.9188C80.0719 30.8417 80.0719 30.8803 80.0774 30.9354Z" fill="#D41367"/>
<path d="M67.0074 77.1163C66.9912 77.002 66.8454 77.0292 66.7752 77.002C66.8616 77.0401 66.9372 77.0728 67.0074 77.1163Z" fill="#D41367"/>
</svg>
