<svg width="380" height="359" viewBox="0 0 380 359" fill="none" xmlns="http://www.w3.org/2000/svg">
<g opacity="0.2">
<path fill-rule="evenodd" clip-rule="evenodd" d="M192.272 158.179V0.867432H188.256V158.178L159.35 3.25716L155.395 3.91616L184.302 158.838L127.367 11.0133L123.594 12.3113L180.528 160.135L97.2956 23.9L93.8178 25.7975L177.05 162.033L70.0487 41.5256L66.9724 43.965L173.973 164.472L46.4545 63.3546L43.8732 66.2618L171.393 167.38L27.2298 88.7241L25.2219 92.0107L169.385 170.667L12.959 116.863L11.5855 120.429L168.01 174.232L4.07535 146.916L3.378 150.653L167.314 177.97H0.848999V181.765H167.313L3.37793 209.082L4.07528 212.819L168.011 185.502L11.5855 239.306L12.959 242.872L169.384 189.069L25.2219 267.724L27.2298 271.011L171.393 192.355L43.8731 293.473L46.4545 296.38L173.974 195.263L66.9724 315.77L70.0488 318.209L177.05 197.702L93.8177 333.937L97.2956 335.835L180.528 199.599L123.594 347.423L127.367 348.721L184.302 200.897L155.395 355.819L159.35 356.478L188.256 201.556V358.867H192.272V201.556L221.179 356.477L225.133 355.818L196.227 200.897L253.161 348.721L256.935 347.423L200.001 199.599L283.233 335.835L286.711 333.937L203.479 197.702L310.48 318.209L313.556 315.77L206.555 195.262L334.074 296.38L336.656 293.473L209.137 192.356L353.299 271.011L355.307 267.724L211.145 189.069L367.57 242.872L368.943 239.306L212.517 185.502L376.454 212.819L377.151 209.082L213.215 181.765H379.68V177.97H213.215L377.151 150.653L376.453 146.916L212.518 174.233L368.943 120.429L367.57 116.863L211.144 170.667L355.307 92.0107L353.299 88.7241L209.137 167.379L336.656 66.2622L334.074 63.355L206.555 164.473L313.556 43.9653L310.48 41.5259L203.478 162.034L286.711 25.7977L283.233 23.9001L200.001 160.136L256.935 12.3114L253.161 11.0134L196.227 158.837L225.133 3.91633L221.179 3.25732L192.272 158.179Z" fill="#064420"/>
<ellipse cx="190.794" cy="180.367" rx="72.4858" ry="68.5" fill="#FAF1E6" stroke="#064420" stroke-width="3"/>
</g>
</svg>
