<svg width="85" height="85" viewBox="0 0 85 85" fill="none" xmlns="http://www.w3.org/2000/svg">
<path d="M42.3193 85C65.6584 85 84.6386 65.9332 84.6386 42.5C84.6386 19.0668 65.6495 0 42.3193 0C18.9891 0 0 19.0668 0 42.5C0 65.9332 18.9802 85 42.3193 85ZM41.0232 71.7847V70.1653H39.9667V68.5458H38.5996V66.2642C37.4366 65.7184 36.3802 65.1637 35.4481 64.5284L32.7049 66.4074L28.1685 59.7505L30.9738 57.8268C30.8761 57.3526 30.7873 56.8605 30.7163 56.3326L27.2896 56.2253L27.5382 48.1637L30.8317 48.2711C30.8939 47.6984 30.9738 47.1079 31.0537 46.5174L27.7779 45.6853L29.7487 37.8653L32.6871 38.6168C32.8203 38.1247 32.9623 37.6326 33.1133 37.1405L30.1925 36.0937L32.9002 28.4974L35.8564 29.5621C36.0517 29.1237 36.2382 28.6763 36.4423 28.2468L33.7258 26.5916L37.8983 19.7021L40.7568 21.4468C41.9731 20.0421 43.2692 18.9147 44.6452 18.2168L45.0092 18.0289L45.3732 18.2168C46.7492 18.9147 48.0364 20.0421 49.2438 21.4289L52.0757 19.7021L56.2393 26.5916L53.5671 28.22C53.7713 28.6495 53.9666 29.0968 54.1619 29.5442L57.0827 28.4974L59.7903 36.0937L56.914 37.1226C57.056 37.6147 57.2069 38.1068 57.3401 38.5989L60.2342 37.8653L62.205 45.6853L58.9825 46.5084C59.0712 47.1079 59.1422 47.6984 59.2133 48.2711L62.4536 48.1726L62.7021 56.2342L59.3287 56.3416C59.2577 56.8874 59.1689 57.3884 59.0623 57.8716L61.8233 59.7684L57.2868 66.4253L54.5703 64.5553C53.6382 65.1816 52.5995 65.7274 51.4454 66.2732V68.5547H50.0783V70.1742H49.0218V71.7937H47.7346V79.6495H42.3104V71.7937H41.0232V71.7847ZM42.3193 1.61947C64.7617 1.61947 83.0229 19.9616 83.0229 42.5C83.0229 49.2374 81.3805 55.5989 78.4953 61.209C80.2176 57.0484 81.1674 52.4853 81.1674 47.6984C81.1674 28.1932 65.4276 12.3832 46.0035 12.3832C26.5794 12.3832 10.8395 28.1842 10.8395 47.6895C10.8395 67.1947 26.5794 83.0047 46.0035 83.0047C46.8468 83.0047 47.6902 82.96 48.5247 82.9063C46.5006 83.2195 44.4321 83.3805 42.3193 83.3805C19.868 83.3805 1.60684 65.0384 1.60684 42.5C1.60684 19.9616 19.868 1.61947 42.3193 1.61947Z" fill="#E5C861"/>
</svg>
