<svg width="5" height="5" viewBox="0 0 5 5" fill="none" xmlns="http://www.w3.org/2000/svg">
<path d="M4.53107 2.25682C4.53107 3.46437 3.60266 4.41355 2.39408 4.41355C1.18549 4.41355 0.246094 3.46437 0.246094 2.25682C0.246094 1.04928 1.20198 0.122559 2.39408 0.122559C3.58618 0.122559 4.53107 1.07174 4.53107 2.25682ZM0.77897 2.25682C0.77897 3.20601 1.46567 3.95862 2.40507 3.95862C3.34447 3.95862 3.99271 3.20601 3.99271 2.26806C3.99271 1.3301 3.31699 0.549413 2.38858 0.549413C1.46017 0.549413 0.773479 1.31887 0.773479 2.25121L0.77897 2.25682ZM2.06446 3.37451H1.58103V1.24024C1.77331 1.20092 2.03699 1.17284 2.38309 1.17284C2.77863 1.17284 2.95442 1.24024 3.10824 1.33011C3.22361 1.41997 3.3115 1.58846 3.3115 1.79627C3.3115 2.03216 3.13571 2.21189 2.87751 2.29053V2.3186C3.08078 2.39724 3.19613 2.5545 3.25656 2.84094C3.32249 3.1667 3.36094 3.29588 3.41038 3.37451H2.8885C2.82257 3.29588 2.78412 3.0993 2.72369 2.85217C2.68523 2.61628 2.55888 2.51519 2.2897 2.51519H2.05897V3.37451H2.06446ZM2.07545 2.16696H2.30618C2.57536 2.16696 2.78962 2.0771 2.78962 1.85244C2.78962 1.65586 2.65228 1.52668 2.34464 1.52668C2.21829 1.52668 2.13039 1.53791 2.07545 1.55476V2.16696Z" fill="#009FBC"/>
</svg>
