<svg width="6" height="5" viewBox="0 0 6 5" fill="none" xmlns="http://www.w3.org/2000/svg">
<path d="M5.06405 2.90832C5.06405 4.07947 4.15169 5.00005 2.96399 5.00005C1.7763 5.00005 0.853149 4.07947 0.853149 2.90832C0.853149 1.73717 1.7925 0.838379 2.96399 0.838379C4.13549 0.838379 5.06405 1.75896 5.06405 2.90832ZM1.37681 2.90832C1.37681 3.8289 2.05163 4.55882 2.97479 4.55882C3.89795 4.55882 4.53499 3.8289 4.53499 2.91922C4.53499 2.00953 3.87096 1.25237 2.9586 1.25237C2.04624 1.25237 1.37141 1.99864 1.37141 2.90288L1.37681 2.90832ZM2.64008 3.99232H2.165V1.92238C2.35396 1.88425 2.61309 1.857 2.9532 1.857C3.3419 1.857 3.51465 1.92238 3.66581 2.00953C3.77918 2.09669 3.86556 2.2601 3.86556 2.46164C3.86556 2.69043 3.69281 2.86474 3.43907 2.941V2.96824C3.63882 3.0445 3.75219 3.19702 3.81158 3.47483C3.87636 3.79076 3.91415 3.91606 3.96274 3.99232H3.44987C3.38509 3.91606 3.3473 3.7254 3.28791 3.48572C3.25012 3.25694 3.12595 3.1589 2.86142 3.1589H2.63468V3.99232H2.64008ZM2.65087 2.82116H2.87762C3.14215 2.82116 3.35269 2.73401 3.35269 2.51612C3.35269 2.32547 3.21773 2.20018 2.91541 2.20018C2.79124 2.20018 2.70486 2.21108 2.65087 2.22742V2.82116Z" fill="#D41367"/>
</svg>
